<?xml version="1.0" encoding="UTF-8" standalone="no"?>
<!-- Created with Inkscape (http://www.inkscape.org/) -->

<svg
   width="14.221726mm"
   height="14.221726mm"
   viewBox="0 0 14.221726 14.221726"
   version="1.1"
   id="svg1"
   inkscape:version="1.3 (0e150ed6c4, 2023-07-21)"
   sodipodi:docname="Cheng Logo.svg"
   xmlns:inkscape="http://www.inkscape.org/namespaces/inkscape"
   xmlns:sodipodi="http://sodipodi.sourceforge.net/DTD/sodipodi-0.dtd"
   xmlns="http://www.w3.org/2000/svg"
   xmlns:svg="http://www.w3.org/2000/svg"
   xmlns:shaper="http://www.shapertools.com/namespaces/shaper">
  <sodipodi:namedview
     id="namedview1"
     pagecolor="#ffffff"
     bordercolor="#666666"
     borderopacity="1.0"
     inkscape:showpageshadow="2"
     inkscape:pageopacity="0.0"
     inkscape:pagecheckerboard="0"
     inkscape:deskcolor="#d1d1d1"
     inkscape:document-units="mm"
     inkscape:zoom="1.0557596"
     inkscape:cx="285.10278"
     inkscape:cy="75.774824"
     inkscape:window-width="1920"
     inkscape:window-height="1017"
     inkscape:window-x="-8"
     inkscape:window-y="-8"
     inkscape:window-maximized="1"
     inkscape:current-layer="layer1" />
  <defs
     id="defs1" />
  <g
     inkscape:label="图层 1"
     inkscape:groupmode="layer"
     id="layer1"
     transform="translate(-97.895832,-141.2875)">
    <g
       id="layer1-9"
       transform="matrix(0.55230005,0,0,0.55230005,15.584882,93.76953)"
       style="stroke:none">
      <g
         id="g60"
         transform="matrix(0,10,-10,0,174.78303,86.03651)"
         style="stroke:none">
        <path
           d="m -1.3503857,0.5052182 a 1.2875,1.2875 0 1 1 2.575,0 1.2875,1.2875 0 1 1 -2.575,0 z"
           fill="#000000"
           shaper:cutDepth="0.0022"
           shaper:pathType="exterior"
           transform="matrix(1,0,0,-1,1.3503857,1.7927182)"
           vector-effect="non-scaling-stroke"
           id="path10-7"
           style="fill:#000000;fill-opacity:1;stroke:none;stroke-opacity:1" />
        <path
           d="m 0.0437792,0.4463429 v 0 l -0.0156369,0.00341 -0.0073175,0.001701 -0.0067163,0.001645 -0.0059146,0.001549 -0.0049126,0.001412 -0.0037102,0.001236 -0.0023073,0.001019 v 0 l -0.0055806,0.004352 -0.0046267,0.006352 -0.0035846,0.007915 -0.0024543,0.009042 -0.0012358,0.009731 7.08e-5,0.009983 0.0014656,0.009799 0.0029486,0.009178 v 0 l 0.0025672,0.00535 0.0031564,0.004553 0.0038538,0.003823 0.0046594,0.003162 0.0055733,0.002568 0.0065954,0.002044 0.0077256,0.001586 0.0089641,0.001198 v 0 l 0.0136837,0.001598 0.0122247,0.001758 0.0110063,0.001983 0.0100283,0.002271 0.0092908,0.002624 0.0087938,0.003041 0.0170585,0.007589 v 0 l 0.009117,0.004918 0.009951,0.005888 0.02112,0.0138199 0.020607,0.0151026 0.009309,0.007491 0.008219,0.007162 v 0 l 0.006826,0.006585 0.006853,0.007262 0.0136029,0.0162515 0.013162,0.0180472 0.0123563,0.0192336 0.0111859,0.0198107 0.009651,0.0197787 0.007751,0.0191374 0.003049,0.009138 0.002437,0.008749 v 0 l 0.003024,0.013508 0.002631,0.0147786 0.003923,0.0312686 0.001212,0.0154399 6.587e-4,0.0146102 6.55e-5,0.0132555 -5.678e-4,0.0113757 v 0 l -0.001418,0.0128319 -0.001832,0.0120985 -0.002267,0.011401 -0.002723,0.0107398 -0.0032,0.0101144 -0.003698,0.009525 -0.004217,0.008972 -0.004757,0.008455 -0.005318,0.007974 -0.0059,0.007529 -0.006504,0.00712 -0.007128,0.006748 -0.007773,0.006411 -0.00844,0.00611 -0.009127,0.00585 -0.009835,0.00562 -0.0253099,0.013681 0.0718253,-0.00171 v 0 l 0.0135922,-2.986e-4 0.0126108,-3.902e-4 0.0117059,-4.934e-4 0.0108778,-6.081e-4 0.0101262,-7.344e-4 0.009451,-8.722e-4 0.0171847,-0.0022 0.0154052,-0.00289 0.0142388,-0.00367 0.0136857,-0.00455 0.0137458,-0.00551 v 0 L 0.4009204,1.0048778 0.4113448,0.9992941 0.4218102,0.9929619 0.4322611,0.9859358 0.4528968,0.9700202 0.4728071,0.9519844 0.491547,0.9322652 0.5086717,0.9112995 0.5237361,0.8895241 0.5303568,0.8784693 0.5362955,0.8673759 v 0 l 0.0017,-0.003649 0.002217,-0.005148 0.002642,-0.006414 0.002975,-0.007448 0.006579,-0.0170692 0.006803,-0.0184159 v 0 l 0.006905,-0.0186885 0.007289,-0.0182075 0.003508,-0.008252 0.003268,-0.007326 0.002915,-0.006132 0.00245,-0.004669 v 0 L 0.5954915,0.7279838 0.6044535,0.7112733 0.6124845,0.695653 0.6196365,0.6809506 0.6259605,0.6669937 0.6315085,0.65361 0.6363325,0.6406271 0.6404835,0.6278726 0.6469735,0.6023596 0.6494155,0.5892565 0.6513915,0.5756924 0.6529525,0.561495 0.6541505,0.546492 0.6550364,0.530511 0.6556622,0.5133796 v 0 L 0.655894,0.5048257 0.6560725,0.4969399 0.6562502,0.4828648 0.6561553,0.4705372 0.6557478,0.4593399 0.6538346,0.4378671 0.6522488,0.4263571 0.6501899,0.4135085 v 0 L 0.6458071,0.3905026 0.6409713,0.369585 0.6354541,0.3501824 0.6290271,0.3317217 0.6214618,0.3136298 0.6125297,0.2953334 0.6020025,0.2762595 0.5960692,0.2662518 0.5896515,0.2558349 v 0 L 0.5863642,0.2502589 0.5829766,0.2439335 0.5762697,0.2298837 0.5702683,0.215385 0.5677625,0.2084984 0.5657097,0.2021369 v 0 L 0.5586801,0.1809748 0.5507087,0.1603938 0.5418474,0.1404942 0.5321485,0.1213762 0.5216639,0.10314 0.5104459,0.0858857 0.4985465,0.0697137 0.4860178,0.054724 v 0 L 0.4815802,0.0497059 0.4777718,0.04581 0.474228,0.042844 0.4705839,0.0406155 0.466475,0.0389321 0.4615363,0.0376014 0.4554032,0.036431 0.447711,0.0352286 v 0 L 0.4352625,0.0330355 0.4242449,0.0302532 0.4145179,0.0268056 0.4059412,0.0226164 0.3983745,0.0176096 0.3916777,0.011709 0.3857103,0.0048385 0.380332,-0.0030782 v 0 L 0.375811,-0.0104745 0.371354,-0.0168447 0.367538,-0.0215476 0.366051,-0.0230733 0.364941,-0.0239418 v 0 L 0.3609751,-0.0257629 0.3558525,-0.027497 0.3497309,-0.0291288 0.342768,-0.0306433 0.3269501,-0.0332606 0.3096611,-0.0352286 0.2921637,-0.036427 l -0.0164433,-3.086e-4 -0.007432,2.169e-4 -0.006695,4.845e-4 -0.0058,7.67e-4 -0.004747,0.0010647 v 0 l -0.005152,0.0010795 -0.004767,1.176e-4 -0.004511,-9.085e-4 -0.004382,-0.0019987 v 0 l -0.002468,-0.0010749 -0.003293,-9.185e-4 -0.004111,-7.662e-4 -0.004921,-6.179e-4 -0.005722,-4.737e-4 -0.006516,-3.333e-4 -0.007301,-1.971e-4 -0.008079,-6.48e-5 v 0 l -0.009239,3.54e-5 -0.007275,1.196e-4 -0.005431,2.238e-4 -0.003708,3.48e-4 -0.002104,4.924e-4 -6.212e-4,6.566e-4 7.415e-4,8.411e-4 0.001984,0.0010454 v 0 l 0.0127167,0.0056015 0.0116446,0.0054302 0.0106385,0.0053199 0.009699,0.0052708 0.008825,0.0052829 0.008017,0.005356 0.007276,0.0054902 0.0066,0.0056857 0.005991,0.0059422 0.005448,0.0062598 0.004971,0.0066386 0.00456,0.0070785 0.004216,0.0075795 0.003937,0.0081416 0.003725,0.0087649 0.003578,0.0094493 v 0 l 0.003092,0.010193 0.002484,0.0111328 0.001886,0.0119545 0.001297,0.012658 7.18e-4,0.0132431 1.484e-4,0.0137101 -0.001374,0.028348 -0.003538,0.0287969 -0.005627,0.0282999 -0.003573,0.013668 -0.004066,0.013189 -0.00455,0.0125918 -0.005025,0.0118764 v 0 L 0.2498386,0.2928787 0.2409715,0.3087011 0.2313087,0.3238051 0.2208735,0.3381721 0.2096887,0.3517835 0.1977774,0.3646209 0.1851627,0.3766657 0.1718677,0.3878993 0.1579153,0.3983033 0.1433286,0.4078591 0.1281307,0.416548 0.1123446,0.4243518 0.0959934,0.4312516 0.0791,0.4372291 0.0616876,0.4422657 Z M 0.596834,0.4029057 v 0 L 0.592319,0.3969847 0.588994,0.3924147 0.5868,0.3889747 l -0.001124,-0.00253 -1.142e-4,-0.00184 8.357e-4,-0.001371 0.001726,-0.001123 0.002555,-0.001095 v 0 l 0.003025,-2.405e-4 0.003474,0.001395 0.003987,0.003126 0.004564,0.004954 v 0 l 0.005801,0.007574 0.005338,0.008305 0.00486,0.008956 0.004367,0.009528 0.00386,0.0100211 0.003339,0.010435 0.002803,0.0107696 0.002252,0.0110251 0.002794,0.0225002 5.131e-4,0.0113167 -9.56e-5,0.0112556 -7.188e-4,0.0111153 -0.001357,0.0108959 -0.002009,0.0105973 -0.002676,0.0102195 v 0 l -0.005355,0.0154179 -0.006317,0.0143597 -0.006894,0.0127885 -0.007086,0.0107043 -0.003495,0.00441 -0.003399,0.003697 -0.003255,0.002919 -0.003062,0.002078 -0.002822,0.001172 -0.002533,2.017e-4 -0.002196,-8.323e-4 -0.001812,-0.001931 v 0 l -1.035e-4,-0.001094 4.295e-4,-0.001691 9.186e-4,-0.002212 0.001363,-0.002657 0.003885,-0.006344 0.005136,-0.007209 v 0 l 0.002889,-0.004092 0.002969,-0.004725 0.005857,-0.0106776 0.005216,-0.0111907 0.003933,-0.0103569 v 0 l 0.002186,-0.006995 0.001709,-0.006382 0.002132,-0.0125748 4.95e-4,-0.007019 1.624e-4,-0.008057 -1.343e-4,-0.009508 -3.948e-4,-0.0113717 v 0 L 0.6243109,0.4799963 0.6228065,0.4661055 0.6206288,0.4536417 0.6176975,0.4423241 0.6139326,0.4318723 0.6092538,0.4220057 0.603581,0.4124437 Z M 0.3769118,0.7097023 v 0 l -0.005846,-0.003343 -0.005348,-0.003726 -0.00484,-0.004084 -0.004322,-0.004416 -0.003795,-0.004722 -0.003258,-0.005003 -0.002712,-0.005259 -0.002157,-0.005489 -0.001592,-0.005693 -0.001017,-0.005872 -4.327e-4,-0.006025 1.609e-4,-0.006153 7.641e-4,-0.006255 0.001377,-0.006332 0.001999,-0.006383 0.002631,-0.006409 v 0 l 0.005552,-0.010576 0.006542,-0.009582 0.007368,-0.00846 0.008029,-0.007209 0.008526,-0.005831 0.008859,-0.004323 0.009027,-0.002688 0.009031,-9.245e-4 v 0 l 0.005024,5.538e-4 0.00567,0.001568 0.006062,0.002442 0.006203,0.003175 0.0118159,0.007989 0.005108,0.004534 0.004239,0.004706 v 0 l 0.00233,0.002731 0.002202,0.001929 0.001817,9.673e-4 0.001176,-1.55e-4 v 0 l 4.917e-4,-0.001112 6.841e-4,-0.002458 8.443e-4,-0.003645 9.727e-4,-0.004671 0.001069,-0.005537 0.001133,-0.006242 0.00233,-0.0139589 v 0 L 0.4719181,0.558247 0.4729734,0.5479972 0.4743943,0.5257836 0.4749254,0.502103 0.4746027,0.4779375 0.4734624,0.4542689 0.4715405,0.4320794 0.4702978,0.4218461 0.4688731,0.4123508 0.4672712,0.4037163 0.4654963,0.3960652 v 0 L 0.4601983,0.3785217 0.4540866,0.3628781 0.4472133,0.3492064 0.4396307,0.3375789 l -0.00824,-0.009511 -0.008845,-0.007323 -0.009398,-0.005062 -0.00489,-0.001661 -0.005009,-0.001069 v 0 l -0.007197,-0.001961 -0.005618,-0.003084 -0.003935,-0.003853 -0.002147,-0.00427 -2.551e-4,-0.004334 0.001741,-0.004046 0.003841,-0.003404 0.002741,-0.001351 0.003305,-0.001059 v 0 l 0.006535,-9.603e-4 0.006739,2.842e-4 0.006882,0.001467 0.006965,0.002587 0.006987,0.003645 0.006948,0.004641 0.006849,0.005575 0.006689,0.006447 0.006469,0.007256 0.006188,0.008004 0.005846,0.008689 0.005444,0.009313 0.004981,0.009874 0.004458,0.0103726 0.003873,0.0108096 0.003229,0.0111843 v 0 l 0.002425,0.0106483 0.002142,0.0117069 0.001857,0.0126138 0.001571,0.0133687 0.002274,0.0283955 0.001103,0.0295939 -8.28e-5,0.0295778 -0.001285,0.0283473 -0.001099,0.0133328 -0.001405,0.0125696 -0.001714,0.0116549 -0.002024,0.0105881 v 0 l -0.002244,0.009904 -0.002259,0.00922 -0.004651,0.0165749 -0.00498,0.0143945 -0.005489,0.0125827 -0.006178,0.0111399 -0.007048,0.0100657 -0.008098,0.00936 -0.009329,0.009024 v 0 l -0.008563,0.00709 -0.008122,0.005383 -0.007881,0.0037 -0.007841,0.00204 -0.008002,4.048e-4 -0.008362,-0.001206 -0.008923,-0.002794 z"
           fill="#7a7a7a"
           fill-rule="nonzero"
           shaper:cutDepth="0.0005"
           shaper:pathType="hogging"
           transform="matrix(1,0,0,-1,1.3503857,1.7927182)"
           vector-effect="non-scaling-stroke"
           id="path12-0"
           style="fill:#ffffff;fill-opacity:1;stroke:none;stroke-opacity:1" />
        <path
           d="m 0.4381343,0.6231699 v 0 l 0.004312,0.005299 0.00325,0.004257 0.00228,0.003455 0.001402,0.002894 6.166e-4,0.002573 -7.69e-5,0.002493 -6.78e-4,0.002653 -0.001187,0.003054 v 0 L 0.444295,0.6573219 0.43915,0.6646839 0.432963,0.6716609 0.426078,0.6779799 0.418841,0.6833699 0.411596,0.6875569 0.404687,0.6902689 0.39846,0.6912336 v 0 L 0.395596,0.6903945 0.391449,0.6881125 0.386532,0.6847405 0.381359,0.6806305 v 0 L 0.376692,0.6759955 0.373199,0.6712565 0.370868,0.6663095 l -0.00118,-0.00526 -4.21e-5,-0.005677 0.001084,-0.006198 0.002198,-0.006823 0.003301,-0.007553 v 0 l 0.003356,-0.006654 0.003401,-0.005854 0.003451,-0.005057 0.003506,-0.004261 0.003566,-0.003467 0.003631,-0.002676 0.003701,-0.001886 0.003776,-0.001099 0.003857,-3.13e-4 0.003942,4.707e-4 0.004032,0.001252 0.004127,0.002032 0.004227,0.002809 0.004333,0.003585 0.004443,0.004358 z"
           fill="#7a7a7a"
           fill-rule="nonzero"
           shaper:cutDepth="0.0005"
           shaper:pathType="hogging"
           transform="matrix(1,0,0,-1,1.3503857,1.7927182)"
           vector-effect="non-scaling-stroke"
           id="path14-8"
           style="fill:#ffffff;fill-opacity:1;stroke:none;stroke-opacity:1" />
        <path
           d="m -0.0335185,1.1221847 v 0 l 0.0070864,-0.00199 0.0083048,-0.00263 0.0085613,-0.00289 0.0078559,-0.00276 v 0 l 0.0041156,-0.00151 0.005274,-0.00168 0.0062119,-0.00179 0.0069294,-0.00185 0.030483,-0.00684 v 0 l 0.0160164,-0.00325 0.0169463,-0.00376 0.015856,-0.00376 0.006888,-0.00172 0.005858,-0.00153 v 0 l 0.016118,-0.00379 0.008989,-0.00136 0.0104638,-0.00108 0.005985,-4.541e-4 0.006595,-4.05e-4 0.007284,-3.629e-4 0.008054,-3.278e-4 0.008903,-2.998e-4 0.009833,-2.787e-4 0.0108433,-2.647e-4 0.0119335,-2.577e-4 0.0796918,-0.00171 v 0.00855 0 l -6.005e-4,0.00689 -0.001703,0.00835 -0.002657,0.0094 -0.003462,0.010041 -0.008748,0.020399 -0.004989,0.00955 -0.005202,0.00857 v 0 L 0.2620374,1.16677 0.2529904,1.177434 0.2431394,1.187344 0.2325621,1.196474 0.2213375,1.204784 0.2095442,1.212244 0.197261,1.218824 0.1845664,1.224484 0.1715391,1.229204 0.1582578,1.232944 0.1448012,1.235674 0.1312478,1.237364 0.1176765,1.2379759 0.1041657,1.2374815 0.0907942,1.2358515 0.0776407,1.2330515 v 0 L 0.0603354,1.2277162 0.0438647,1.2211209 0.0282919,1.2132509 0.013681,1.2041425 9.62e-5,1.1938317 -0.0123984,1.1823544 -0.0237387,1.1697469 -0.0338605,1.1560452 v 0 l -0.0055098,-0.00853 -0.0044517,-0.00763 -0.0016988,-0.00324 -0.0012779,-0.00273 -8.049e-4,-0.00212 -2.799e-4,-0.00141 v 0 l 0.0011383,-0.002 0.0030942,-0.00223 0.0045693,-0.00216 z"
           fill="#7a7a7a"
           fill-rule="nonzero"
           shaper:cutDepth="0.0005"
           shaper:pathType="hogging"
           transform="matrix(1,0,0,-1,1.3503857,1.7927182)"
           vector-effect="non-scaling-stroke"
           id="path16-0"
           style="fill:#ffffff;fill-opacity:1;stroke:none;stroke-opacity:1" />
        <path
           d="m -0.0106028,-0.1877718 v 0 L 7.603e-4,-0.198256 0.0126289,-0.207643 0.0249554,-0.215927 0.0376922,-0.223101 0.0507918,-0.229159 0.0642065,-0.234094 0.0778888,-0.2379 0.091791,-0.24057 l 0.0140746,-0.001528 0.0141993,-3.792e-4 0.0142764,7.762e-4 0.0143061,0.001938 0.014288,0.003106 0.0142223,0.004281 0.0141091,0.005463 0.0139483,0.006651 v 0 l 0.0119716,0.006889 0.0107571,0.00731 0.009515,0.007703 0.008244,0.008068 0.006945,0.008404 0.005619,0.008713 0.004264,0.008993 0.002881,0.009246 v 0 l 0.001647,0.008507 0.00133,0.009529 0.001598,0.0200565 2.117e-4,0.009493 -2.171e-4,0.0084471 -6.74e-4,0.006884 -0.001159,0.0048037 v 0 l -0.001047,0.0016099 -0.002133,0.0012652 -0.003632,9.606e-4 -0.005544,6.961e-4 -0.003618,2.614e-4 -0.004251,2.102e-4 -0.004935,1.642e-4 -0.005671,1.231e-4 -0.006459,8.7e-5 -0.007298,5.59e-5 -0.008189,2.99e-5 -0.009131,8.9e-6 v 0 l -0.009236,-1.33e-5 -0.008396,-4.48e-5 -0.007638,-8.4e-5 -0.006961,-1.305e-4 L 0.161792,-0.0824467 0.1513021,-0.0831542 0.1328915,-0.0856392 0.1236645,-0.087537 0.1135514,-0.0899519 v 0 L 0.1063324,-0.0917055 0.0984391,-0.0935866 0.0816585,-0.0974772 0.0652627,-0.1011112 0.0578504,-0.1026717 0.0513038,-0.1039757 v 0 l -0.0066101,-0.001305 -0.0076,-0.001565 -0.017128,-0.003671 -0.0179616,-0.003992 -0.0167112,-0.003832 v 0 l -0.0142314,-0.003538 -0.0062159,-0.001669 -0.0054183,-0.001548 -0.0044724,-0.001388 -0.0033782,-0.001188 -0.0021356,-9.472e-4 -7.449e-4,-6.667e-4 v 0 l 4.233e-4,-0.002036 8.627e-4,-0.002483 0.0029092,-0.00611 0.0042639,-0.007305 0.0053502,-0.008102 0.0128847,-0.0170104 0.0069975,-0.008114 z"
           fill="#7a7a7a"
           fill-rule="nonzero"
           shaper:cutDepth="0.0005"
           shaper:pathType="hogging"
           transform="matrix(1,0,0,-1,1.3503857,1.7927182)"
           vector-effect="non-scaling-stroke"
           id="path18-2"
           style="fill:#ffffff;fill-opacity:1;stroke:none;stroke-opacity:1" />
        <path
           d="m -0.0752455,0.3030343 0.0078665,0.009919 v 0 l 0.0040723,0.004452 0.0036233,0.002688 0.0033668,0.001085 0.0033027,-3.58e-4 v 0 l 0.0030355,-0.001961 9.325e-4,-0.001556 5.638e-4,-0.002169 2.111e-4,-0.002955 -1.256e-4,-0.003912 -4.462e-4,-0.005043 -7.509e-4,-0.006346 v 0 L -0.0532384,0.2590948 -0.0559211,0.2198367 -0.0575778,0.1794243 -0.0581443,0.1381782 v 0 l -1.34e-5,-0.0108689 -4.6e-5,-0.009692 -8.71e-5,-0.008581 -1.367e-4,-0.007535 -1.948e-4,-0.0065552 -2.615e-4,-0.0056408 -3.366e-4,-0.0047921 -4.202e-4,-0.004009 -5.125e-4,-0.0032916 -6.132e-4,-0.0026397 -0.0015625,-0.0035866 -0.0020675,-0.0017669 -0.0026406,-4.723e-4 v 0 l -0.0022065,-1.951e-4 -0.001465,-6.6e-4 -6.874e-4,-0.0012372 1.263e-4,-0.0019265 9.76e-4,-0.0027282 0.0018617,-0.003642 0.0027837,-0.0046682 0.0037415,-0.0058064 v 0 L -0.0555864,0.0386482 -0.0493745,0.0306273 -0.0431546,0.0237207 -0.0368105,0.0178281 -0.0302258,0.0128493 -0.0232844,0.0086842 -0.0158701,0.0052326 -0.0078666,0.0023942 0,0 v 0.1744329 0 l 1.2e-6,0.0154884 4.2e-6,0.0145491 8.4e-6,0.0136403 1.36e-5,0.0127623 1.98e-5,0.0119149 2.72e-5,0.0110979 3.56e-5,0.0103118 4.5e-5,0.009556 5.55e-5,0.008831 6.71e-5,0.008137 7.98e-5,0.007473 9.35e-5,0.00684 2.324e-4,0.0119033 3e-4,0.009738 3.762e-4,0.007819 4.608e-4,0.006144 5.541e-4,0.004714 6.557e-4,0.003529 7.66e-4,0.002589 8.847e-4,0.001894 0.0021597,0.002683 v 0 l 0.0063702,0.004831 0.003105,0.00147 0.0024957,5.398e-4 v 0 L 0.0213071,0.362349 0.024412,0.3608794 0.0307823,0.3560482 v 0 l 0.0020615,-0.002355 0.0016046,-0.002824 0.0012037,-0.003858 8.591e-4,-0.005457 3.178e-4,-0.003505 2.527e-4,-0.004117 1.945e-4,-0.004799 1.435e-4,-0.005552 9.94e-5,-0.006376 6.23e-5,-0.00727 3.22e-5,-0.008235 9.2e-6,-0.00927 V 0.2356554 l 0.0075245,0.002052 v 0 l 0.0087618,0.002325 0.0083609,0.001587 0.0080082,8.498e-4 0.0077035,1.122e-4 0.0074471,-6.253e-4 0.0072387,-0.001363 0.0070783,-0.0021 0.0069661,-0.002838 v 0 l 0.009976,-0.005466 0.008638,-0.006552 0.0073,-0.007489 0.005963,-0.008277 0.004626,-0.008916 0.00329,-0.009407 0.001954,-0.009748 6.193e-4,-0.009941 -7.153e-4,-0.009985 -0.00205,-0.009881 -0.003383,-0.009627 -0.004717,-0.009225 -0.006049,-0.008674 -0.007381,-0.007974 -0.008713,-0.007125 -0.0100443,-0.006128 v 0 L 0.1006169,0.0993169 0.093266,0.0979154 0.0846005,0.097043 0.0752455,0.0967076 0.0658265,0.0969174 0.0569686,0.0976803 0.0492971,0.0990043 0.0434372,0.1008974 v 0 L 0.0416162,0.1015381 0.04022,0.1010845 0.0391926,0.0990517 0.0384778,0.0949547 0.0382201,0.0919807 0.0380196,0.0883086 0.0378691,0.0838781 0.0377617,0.0786284 0.0376904,0.0724989 0.0376482,0.065429 0.037628,0.0573581 0.0376228,0.0482256 v -0.0557502 l 0.0297562,0.0020522 v 0 l 0.0137932,0.0014817 0.0150438,0.0022913 0.0312739,0.0064022 0.0149476,0.0038064 0.0136329,0.0040068 0.0116769,0.0040549 0.004905,0.0019978 0.004175,0.0019528 v 0 l 0.007237,0.0043622 0.007438,0.0057169 0.00739,0.006791 0.007093,0.0075847 0.006548,0.0080977 0.005754,0.0083302 0.004712,0.0082821 0.003422,0.0079534 v 0 l 0.004778,0.0158488 0.003559,0.0174399 0.002341,0.0185061 0.001122,0.0190472 -9.62e-5,0.0190632 -0.001315,0.0185542 -0.002533,0.0175201 -0.003752,0.015961 v 0 l -0.004088,0.0123102 -0.004821,0.0120377 -0.005551,0.0117491 -0.006276,0.0114445 -0.006997,0.0111238 -0.007715,0.0107872 -0.008428,0.0104344 -0.009138,0.0100657 v 0 L 0.1609102,0.3257296 0.1436559,0.3397059 0.1257043,0.3514857 0.1070111,0.3610931 0.0875324,0.3685522 0.067224,0.373887 0.0460418,0.377121 l -0.0221,0.001158 v 0 l -0.0100464,-4.81e-5 -0.0081184,-2.084e-4 -0.0066354,-4.65e-4 -0.0055973,-8.176e-4 -0.00986,-0.003078 -0.0051524,-0.002453 -0.0058939,-0.00319 v 0 l -0.0089247,-0.00551 -0.0078346,-0.006247 -0.0068084,-0.006953 -0.0058465,-0.007626 v 0 l -0.0087644,-0.0147071 -0.0035966,-0.007033 -0.0013634,-0.003043 -9.827e-4,-0.002578 z"
           fill="#7a7a7a"
           fill-rule="nonzero"
           shaper:cutDepth="0.0005"
           shaper:pathType="hogging"
           transform="matrix(1,0,0,-1,1.3503857,1.7927182)"
           vector-effect="non-scaling-stroke"
           id="path20-0"
           style="fill:#ffffff;fill-opacity:1;stroke:none;stroke-opacity:1" />
        <path
           d="m -0.0598544,0.9118392 0.0020521,-0.0872164 v 0 l 0.0012559,-0.036586 7.702e-4,-0.0180405 8.384e-4,-0.0171988 8.865e-4,-0.0158521 9.145e-4,-0.0140003 4.615e-4,-0.006148 4.61e-4,-0.005496 4.58e-4,-0.00478 4.525e-4,-0.004002 v 0 l 0.001137,-0.009603 8.404e-4,-0.007904 5.357e-4,-0.006397 2.231e-4,-0.005082 -9.75e-5,-0.00396 -4.262e-4,-0.00303 -7.629e-4,-0.002293 -0.0011076,-0.001748 v 0 l -0.0015157,-0.00318 2.278e-4,-0.003789 0.001823,-0.004238 0.00327,-0.004526 0.0045685,-0.004655 0.005719,-0.004623 0.0067209,-0.00443 0.0075746,-0.004077 v 0 l 0.004485,-0.001815 0.0050697,-0.001596 0.0116028,-0.002526 0.0130698,-0.00162 0.0139555,-6.941e-4 0.0142602,2.519e-4 0.0139836,0.001218 0.0131259,0.002204 0.011687,0.00321 v 0 l 0.0145334,0.005134 0.0130424,0.005287 0.011888,0.005655 0.0110704,0.006241 0.0105894,0.007042 0.0104452,0.00806 0.0106375,0.009295 0.0111666,0.0107457 v 0 l 0.008571,0.008699 0.007157,0.007601 0.005994,0.006847 0.005084,0.006438 0.008449,0.013029 0.00387,0.00728 0.00397,0.00825 v 0 l 0.007476,0.0173391 0.006034,0.0169703 0.004623,0.0167459 0.003244,0.0166657 0.001897,0.0167298 5.825e-4,0.0169383 -7.001e-4,0.017291 -0.001951,0.0177879 v 0 l -0.001898,0.0110739 -0.002243,0.0104049 -0.002604,0.009757 -0.002981,0.009129 -0.003374,0.008522 -0.003782,0.007935 -0.004207,0.007369 -0.004648,0.006823 -0.005105,0.006298 -0.005578,0.005794 -0.006067,0.00531 -0.006572,0.004846 -0.007093,0.004403 -0.00763,0.003981 -0.008183,0.003579 -0.008752,0.003198 v 0 l -0.00431,0.001327 -0.005271,0.001401 -0.006095,0.001453 -0.006781,0.001483 -0.0150718,0.002969 -0.0161701,0.002824 -0.01617,0.002504 -0.0150719,0.00201 -0.0067808,7.619e-4 -0.0060945,5.715e-4 -0.0052709,3.591e-4 -0.0043098,1.246e-4 H 0.0376228 V 0.8937119 l 0.014365,0.00513 v 0 l 0.0066782,0.00183 0.0071151,0.001136 0.0074116,4.549e-4 0.007568,-2.145e-4 0.007584,-8.717e-4 0.0074598,-0.001517 0.0071952,-0.00215 0.00679,-0.002772 v 0 l 0.007739,-0.00483 0.007422,-0.006553 0.006885,-0.007916 0.006128,-0.008918 0.00515,-0.009559 0.003951,-0.00984 0.002533,-0.00976 8.931e-4,-0.009319 v 0 l -5.834e-4,-0.008791 -0.001695,-0.008504 -0.002723,-0.008155 -0.003668,-0.007742 -0.004529,-0.007267 -0.005308,-0.00673 -0.006003,-0.00613 -0.006615,-0.005467 -0.007145,-0.004741 -0.00759,-0.003953 L 0.0966784,0.7574608 0.0884456,0.7552718 0.0800164,0.7540588 0.0714739,0.7538844 0.0629014,0.7548112 0.054382,0.7569018 0.0376228,0.7623742 v -0.0571182 0 l -9e-6,-0.009109 L 0.0375827,0.688018 0.0375236,0.680807 0.0374304,0.674452 0.0372971,0.668891 0.0371178,0.664061 0.0368863,0.6598999 0.0365967,0.6563464 0.0358191,0.6508125 0.0347369,0.6469621 0.033302,0.644298 0.0314663,0.6423234 v 0 L 0.0280487,0.6397735 0.0245189,0.6380213 0.0209571,0.6370627 0.0174433,0.6368937 0.0140578,0.6375103 0.0108807,0.6389084 0.0079922,0.6410842 0.0054724,0.6440335 v 0 L 0.0038625,0.647572 0.0031893,0.6503184 0.0025973,0.6539362 0.0020814,0.65859 0.0016366,0.6644448 0.001258,0.6716653 9.406e-4,0.6804164 6.792e-4,0.690863 4.689e-4,0.7031698 3.048e-4,0.7175017 1.817e-4,0.7340235 1.34e-4,0.7431572 9.47e-5,0.7529001 6.31e-5,0.763273 3.87e-5,0.7742963 2.09e-5,0.7859908 8.9e-6,0.7983769 2.1e-6,0.8114754 0,0.8253068 v 0 l -1.24e-5,0.0244969 -3.84e-5,0.0222484 -6.64e-5,0.0200919 -9.66e-5,0.0180278 -1.286e-4,0.0160559 -1.626e-4,0.014176 -1.988e-4,0.0123884 -2.368e-4,0.0106929 -2.769e-4,0.00909 -3.189e-4,0.007579 -3.631e-4,0.00616 -4.092e-4,0.004833 -4.572e-4,0.003599 -5.074e-4,0.002456 -5.595e-4,0.001406 -6.135e-4,4.482e-4 v 0 L -0.0062956,0.9988223 -0.0085947,0.9981512 -0.0142902,0.9956675 -0.0210279,0.9919493 -0.0283026,0.9873413 -0.0424432,0.9768347 -0.048299,0.9716255 -0.0526719,0.9669053 v 0 L -0.0569365,0.9607114 -0.06165,0.9530105 -0.0662353,0.9447324 -0.0701152,0.9368071 v 0 l -0.0034777,-0.007666 -0.0024756,-0.005951 -0.0014657,-0.004444 -4.475e-4,-0.003145 5.785e-4,-0.002055 0.0016126,-0.001173 0.0026547,-4.996e-4 0.0037048,-3.48e-5 z"
           fill="#7a7a7a"
           fill-rule="nonzero"
           shaper:cutDepth="0.0005"
           shaper:pathType="hogging"
           transform="matrix(1,0,0,-1,1.3503857,1.7927182)"
           vector-effect="non-scaling-stroke"
           id="path22-2"
           style="fill:#ffffff;fill-opacity:1;stroke:none;stroke-opacity:1" />
        <path
           d="m -0.2633594,0.0926888 v 0 L -0.2493952,0.0893755 -0.2352706,0.0854208 -0.222621,0.0813379 -0.21736,0.0794086 -0.213081,0.0776397 v 0 l 0.008404,-0.004481 0.008424,-0.005395 0.008272,-0.0061644 0.007947,-0.0067898 0.00745,-0.0072707 0.006781,-0.0076074 0.005939,-0.0077997 0.004925,-0.0078479 v 0 l 0.008337,-0.0126549 0.003928,-0.0047563 0.001693,-0.0016768 0.001433,-0.0010915 v 0 l 0.001836,-0.0010628 0.001435,-5.778e-4 0.001082,-2.48e-5 7.776e-4,5.966e-4 5.21e-4,0.0012859 3.127e-4,0.0020435 1.523e-4,0.0028691 4.01e-5,0.003763 v 0 l -1.083e-4,0.003318 -3.086e-4,0.0044363 -4.85e-4,0.0053582 -6.372e-4,0.0060836 -0.001635,0.0135581 -0.001956,0.0141032 v 0 l -0.002227,0.0164453 -0.001546,0.015844 -8.564e-4,0.015796 -1.59e-4,0.016301 5.465e-4,0.0173591 0.00126,0.0189703 8.999e-4,0.0102623 0.001081,0.0108725 0.001264,0.0115519 0.001447,0.0123004 v 0 l 0.005333,0.0402627 0.006808,0.0391726 0.008348,0.0387878 0.009951,0.0391085 v 0 l 0.003864,0.0170478 0.001265,0.009826 4.918e-4,0.005762 4.081e-4,0.006526 3.319e-4,0.00744 2.633e-4,0.008503 2.021e-4,0.009715 1.486e-4,0.0110773 1.024e-4,0.0125883 6.39e-5,0.0142486 3.28e-5,0.0160584 9.3e-6,0.0180172 V 0.610857 L -0.109449,0.6501899 v 0 l -0.005246,0.0203491 -0.004723,0.0189458 -0.004221,0.0176861 -0.00374,0.0165705 -0.003281,0.0155985 -0.002844,0.0147703 -0.002428,0.0140859 -0.002034,0.0135453 -0.002971,0.026044 -0.001652,0.0256071 -5.057e-4,0.0263206 1.232e-4,0.0137873 3.451e-4,0.0143971 v 0 l 0.001202,0.0245029 0.001491,0.0235088 8.237e-4,0.0105501 8.597e-4,0.009303 8.838e-4,0.007724 8.958e-4,0.005812 v 0 l 0.001331,0.009288 8.498e-4,0.007813 2.144e-4,0.003093 5.81e-5,0.002412 -1.102e-4,0.001626 -2.906e-4,7.362e-4 v 0 l -0.001616,8.831e-4 -0.002013,-1.67e-4 -0.00239,-0.001209 -0.002746,-0.002243 -0.003083,-0.003269 -0.0034,-0.004287 -0.003696,-0.005297 -0.003973,-0.006299 v 0 l -0.006877,-0.0104839 -0.007675,-0.0102835 -0.008276,-0.009883 -0.008681,-0.009281 -0.008889,-0.00848 -0.008901,-0.007478 -0.008717,-0.006275 -0.008336,-0.004873 v 0 l -0.004915,-0.002254 -0.00619,-0.002374 -0.007328,-0.002454 -0.00833,-0.002494 -0.009196,-0.002494 -0.009925,-0.002454 -0.0214942,-0.004628 v 0 l -0.012524,-0.002734 -0.0115627,-0.002834 -0.0106418,-0.002961 -0.009761,-0.003116 -0.008922,-0.003298 -0.008123,-0.003508 -0.007364,-0.003746 -0.006646,-0.004011 -0.005969,-0.004303 -0.005332,-0.004624 -0.004736,-0.004971 -0.00418,-0.005346 -0.003665,-0.005749 -0.003191,-0.00618 -0.002757,-0.006637 -0.002363,-0.007123 v 0 l -0.001693,-0.006881 -9.52e-4,-0.008152 -1.743e-4,-0.009923 2.157e-4,-0.005783 4.236e-4,-0.006413 6.36e-4,-0.007107 8.53e-4,-0.007863 0.001074,-0.008682 0.0013,-0.009563 0.001531,-0.0105066 0.001766,-0.0115132 0.002005,-0.0125824 0.002249,-0.0137142 v 0 l 0.002732,-0.0164562 0.002437,-0.0149747 0.002158,-0.013655 0.001897,-0.0124972 0.001652,-0.0115012 0.001425,-0.010667 0.002235,-0.0194787 0.00249,-0.0360677 5.278e-4,-0.0191781 1.441e-4,-0.0104415 8.7e-5,-0.0112257 v 0 L -0.3719,0.5019371 -0.3723615,0.4823873 -0.3731447,0.4618144 -0.3742257,0.4404605 -0.3771887,0.3963773 -0.3810617,0.3520737 -0.3832807,0.3304442 -0.3856557,0.3094856 -0.3881647,0.2894398 -0.3907827,0.2705488 -0.3934877,0.2530546 -0.3962547,0.2371993 -0.3990607,0.2232248 -0.4018827,0.2113731 v 0 l -0.002131,-0.009641 -0.001514,-0.009581 -8.885e-4,-0.009365 -2.552e-4,-0.008992 3.861e-4,-0.008463 0.001035,-0.007778 0.001693,-0.006936 0.002358,-0.005938 v 0 l 0.00445,-0.007368 0.006265,-0.00643 0.0041,-0.002971 0.004899,-0.002866 0.005811,-0.002804 0.006839,-0.002785 0.007981,-0.002809 0.009238,-0.002876 0.01061,-0.002986 0.0120966,-0.00314 0.0136978,-0.003336 0.0154137,-0.003575 0.0172445,-0.0038579 z"
           fill="#7a7a7a"
           fill-rule="nonzero"
           shaper:cutDepth="0.0005"
           shaper:pathType="hogging"
           transform="matrix(1,0,0,-1,1.3503857,1.7927182)"
           vector-effect="non-scaling-stroke"
           id="path24-4"
           style="fill:#ffffff;fill-opacity:1;stroke:none;stroke-opacity:1" />
        <path
           d="m 0.9323607,1.1375759 v 0 l 3.078e-4,0.00825 1.61e-4,0.00899 1.97e-5,0.00967 -1.161e-4,0.010306 -6.177e-4,0.0223 -0.001095,0.024206 a 1.225,1.225 35.77178 0 1 -0.0135397,0.018428 v 0 l -8.53e-4,-0.00878 v 0 l -3.648e-4,-0.00337 -3.253e-4,-0.00404 -5.337e-4,-0.0099 -3.815e-4,-0.011999 -2.331e-4,-0.013706 -8.89e-5,-0.015021 5.15e-5,-0.015943 5.077e-4,-0.03308 v 0 l 3.52e-4,-0.012353 2.839e-4,-0.01123 2.118e-4,-0.010227 1.356e-4,-0.00934 5.54e-5,-0.00858 -2.87e-5,-0.00794 -3.26e-4,-0.01442 -0.001838,-0.026384 -0.001576,-0.013879 -0.002058,-0.0156149 v 0 L 0.9089066,0.9828622 0.9073181,0.9709615 0.9042292,0.94617 0.902809,0.9340408 0.901525,0.922597 0.9004174,0.9122193 0.8995263,0.9032886 v 0 L 0.8985779,0.8933112 0.8976465,0.8842487 0.8967171,0.876046 0.8957747,0.8686478 0.8948043,0.8619992 0.8937907,0.856045 0.8915742,0.8459994 0.889005,0.83807 0.8859629,0.831816 0.8823275,0.8267965 0.8779787,0.8225706 v 0 l -0.00356,-0.002825 -0.003179,-0.002076 -0.003091,-0.001346 -0.003295,-6.366e-4 -0.003792,5.28e-5 -0.004582,7.221e-4 -0.005664,0.001371 -0.007039,0.002001 v 0 l -0.002906,9.09e-5 -0.001808,-0.001673 -7.335e-4,-0.003276 3.166e-4,-0.004719 0.001343,-0.006001 0.002345,-0.007124 0.003323,-0.008086 0.004277,-0.008887 v 0 l 0.004769,-0.008726 0.004589,-0.006702 0.004452,-0.004706 0.00436,-0.002738 0.004312,-7.983e-4 0.004308,0.001114 0.004348,0.002997 0.004432,0.004853 v 0 l 0.004213,0.006238 0.003776,0.007945 0.001778,0.004856 0.001733,0.005574 0.001711,0.00639 0.001709,0.007303 0.001729,0.008313 0.001771,0.00942 0.001834,0.0106246 0.001918,0.0119263 0.002025,0.0133251 0.002152,0.0148212 0.002302,0.0164144 0.002473,0.0181047 v 0 l 6.351e-4,0.005328 7.423e-4,0.00751 8.366e-4,0.009484 9.176e-4,0.0112503 9.859e-4,0.0128094 0.001041,0.0141611 0.001083,0.0153055 0.001112,0.0162423 0.002259,0.0344658 0.002219,0.035724 0.002075,0.035324 9.507e-4,0.016993 z"
           fill="#7a7a7a"
           fill-rule="nonzero"
           shaper:cutDepth="0.0005"
           shaper:pathType="hogging"
           transform="matrix(1,0,0,-1,1.3503857,1.7927182)"
           vector-effect="non-scaling-stroke"
           id="path26-2"
           style="fill:#ffffff;fill-opacity:1;stroke:none;stroke-opacity:1" />
        <path
           d="m 0.9539083,1.1635698 v 0 l 0.001064,-0.00123 0.001763,-0.00156 0.00246,-0.00188 0.003156,-0.0022 0.003851,-0.00251 0.004544,-0.00283 0.005236,-0.00314 0.005926,-0.00345 a 1.225,1.225 31.472214 0 1 -0.0290363,0.04518 v 0 l -0.001472,-0.00875 -3.181e-4,-0.00722 8.36e-4,-0.00583 z"
           fill="#7a7a7a"
           fill-rule="nonzero"
           shaper:cutDepth="0.0005"
           shaper:pathType="hogging"
           transform="matrix(1,0,0,-1,1.3503857,1.7927182)"
           vector-effect="non-scaling-stroke"
           id="path28-5"
           style="fill:#ffffff;fill-opacity:1;stroke:none;stroke-opacity:1" />
        <path
           d="m 0.892938,1.2713943 v 0 l -2.104e-4,-0.00599 -3.838e-4,-0.00709 v 0 l -1.241e-4,-0.00338 -1.151e-4,-0.00419 -1.05e-4,-0.00495 -9.4e-5,-0.00564 -1.51e-4,-0.013127 -9.49e-5,-0.015191 -3.07e-5,-0.016779 4.14e-5,-0.017889 3.314e-4,-0.037201 v 0 l 1.639e-4,-0.013255 1.053e-4,-0.012255 4.41e-5,-0.011353 -1.94e-5,-0.01055 -8.56e-5,-0.00984 -1.542e-4,-0.00924 -5.244e-4,-0.017045 -0.001983,-0.031124 -0.001498,-0.01565 -0.001863,-0.0167566 v 0 L 0.8833549,0.9689574 0.8807149,0.9460417 0.8795673,0.9357703 0.878588,0.9267173 0.8778171,0.9192034 0.8772947,0.9135493 v 0 L 0.875658,0.897231 0.8740775,0.8831091 0.8725451,0.8711035 0.8710527,0.861134 0.8695924,0.8531204 0.8681562,0.8469827 0.866736,0.8426406 0.8653238,0.8400139 v 0 l -0.002557,-0.002502 -0.002766,-0.001613 -0.002926,-7.308e-4 -0.003038,1.43e-4 -0.003102,0.001009 -0.003118,0.001866 -0.003086,0.002716 -0.003006,0.003558 v 0 l -0.003249,0.004323 -0.003762,0.004868 -0.003762,0.004804 -0.003249,0.004131 v 0 l -0.003119,0.003458 -0.004454,0.003687 -0.005744,0.003887 -0.006991,0.00406 -0.008193,0.004204 -0.009352,0.00432 -0.0104658,0.004408 -0.011536,0.004468 v 0 l -0.00493,0.001979 -0.004112,0.001923 -0.006349,0.004222 -0.00481,0.005633 -0.002188,0.003686 -0.002236,0.004448 v 0 L 0.74048,0.9230591 0.737505,0.9306721 0.731594,0.948094 0.729028,0.956717 0.726966,0.96449 0.725594,0.97082 0.7252241,0.973259 0.7250957,0.975114 v 0 l 8.256e-4,0.001423 0.002253,0.001623 0.003343,0.001703 0.004096,0.001663 0.009106,0.002726 0.004337,8.216e-4 0.003744,3.006e-4 v 0 l 0.002747,-4.328e-4 0.002041,-0.001235 0.001272,-0.00194 4.382e-4,-0.002549 v 0 l 2.331e-4,-0.001649 6.7e-4,-0.002311 0.002474,-0.006172 0.003693,-0.007519 0.004559,-0.008 v 0 l 0.004313,-0.007519 0.002998,-0.006205 9.159e-4,-0.002399 4.789e-4,-0.001818 6.1e-6,-0.001152 -5.031e-4,-4.028e-4 v 0 l -0.002571,-4.837e-4 -0.002736,-0.001333 -0.005339,-0.00451 -0.00412,-0.005793 -0.001213,-0.002937 -4.389e-4,-0.002728 v 0 l 6.627e-4,-0.002757 0.001817,-0.002886 0.002715,-0.002629 0.003356,-0.001988 v 0 l 0.004617,-0.001646 0.003591,-2.351e-4 0.003335,0.001304 0.003848,0.002971 v 0 l 0.002656,0.002891 0.002175,0.003308 0.00147,0.003372 5.398e-4,0.003084 v 0 l 4.542e-4,0.002693 0.001384,0.001924 0.002346,0.001154 0.00334,3.848e-4 v 0 l 0.00412,1.763e-4 0.005243,4.65e-4 0.0111586,0.001411 v 0 l 0.003991,6.393e-4 0.003117,3.066e-4 0.002428,-1.343e-4 0.001923,-6.833e-4 0.001602,-0.001341 0.001466,-0.002106 0.001514,-0.00298 0.001746,-0.003962 v 0 l 0.002454,-0.004778 0.002815,-0.003756 0.002895,-0.002642 0.002695,-0.001435 0.002214,-1.37e-4 0.001452,0.001254 4.101e-4,0.002737 -9.125e-4,0.004312 v 0 l -5.571e-4,0.001983 -6.293e-4,0.002784 -0.001379,0.00746 -0.001379,0.009128 -0.001186,0.009769 v 0 L 0.846446,0.9557963 0.84425,0.9646413 0.841733,0.9716263 0.840384,0.9742313 0.838991,0.9761423 v 0 L 0.8266749,0.990505 v 0 l -0.00442,0.005341 -0.004008,0.005967 -0.003566,0.00651 -0.003098,0.00698 -0.002601,0.00736 -0.002076,0.00767 -0.002464,0.015926 v 0 l -5.344e-4,0.00558 -5.986e-4,0.00472 -6.947e-4,0.00393 -8.23e-4,0.00322 -9.833e-4,0.00258 -0.001176,0.00201 -0.003057,0.0026 v 0 l -0.002677,0.00116 -0.002325,4.222e-4 -0.001876,-2.832e-4 -0.001331,-9.566e-4 v 0 l -1.959e-4,-9.68e-4 3.96e-5,-0.00169 7.014e-4,-0.00523 0.001391,-0.00712 0.001912,-0.00834 0.004714,-0.017636 0.002465,-0.00795 0.002313,-0.00648 v 0 l 3.367e-4,-0.00286 -0.001748,-0.00261 -0.001746,-0.00129 -0.002375,-0.00132 -0.00304,-0.00138 -0.003742,-0.00148 v 0 l -0.005937,-0.00235 -0.005136,-0.00184 -0.003789,-0.001197 -0.001897,-4.276e-4 v 0 l -4.383e-4,0.00108 -2.458e-4,0.00294 1.07e-5,0.00435 3.313e-4,0.00531 v 0 l 1.016e-4,0.00748 -0.001341,0.00799 -0.002945,0.00915 -0.002124,0.00521 -0.002584,0.00574 v 0 l -0.003301,0.0069 -0.002908,0.00549 -0.002796,0.00439 -0.002965,0.00358 -0.003414,0.00306 -0.004143,0.00285 -0.005153,0.00293 -0.006444,0.0033 v 0 l -0.00839,0.00411 -0.007685,0.00337 -0.006146,0.00228 -0.002235,6.22e-4 -0.001538,2.171e-4 v 0 l -0.00205,-3.2e-4 -0.001525,-8.932e-4 -9.88e-4,-0.00137 -4.389e-4,-0.00174 8.177e-4,-0.0042 0.003158,-0.00448 v 0 l 0.001315,-0.00194 -2.885e-4,-0.00178 -0.002084,-0.00172 -0.004072,-0.00175 v 0 l -0.003607,-0.0017 -0.002934,-0.00189 -0.001972,-0.00189 -7.215e-4,-0.0017 v 0 l -8.55e-4,-0.00235 -0.001881,-0.00107 v 0 l -0.001007,2.879e-4 -0.001019,9.893e-4 -0.001107,0.00188 -0.001271,0.00296 -0.001512,0.00422 -0.001828,0.00568 -0.002221,0.00732 -0.00269,0.00915 v 0 l -8.377e-4,0.0043 -4.77e-4,0.00585 3.21e-5,0.01413 4.609e-4,0.00715 7.255e-4,0.00646 9.66e-4,0.00521 0.001182,0.0034 v 0 l 0.006001,0.00936 0.003528,0.00402 0.004109,0.00377 0.004862,0.00365 0.005788,0.00368 0.006887,0.00385 0.008157,0.00416 v 0 l 0.0123931,0.00666 0.0105654,0.00711 0.009603,0.00826 0.009507,0.010122 v 0 l 0.006488,0.00687 0.007001,0.00641 0.007289,0.00581 0.007354,0.00507 0.007193,0.00419 0.006808,0.00316 0.006199,0.002 0.005366,6.981e-4 v 0 l 0.004684,5.691e-4 0.005021,0.00168 0.005277,0.00273 0.005454,0.00374 0.00555,0.00471 0.005566,0.00562 0.005502,0.00649 0.005358,0.0073 v 0 l 0.005826,0.00801 0.005146,0.00635 0.004566,0.00475 0.004086,0.00321 A 1.225,1.225 40.060356 0 0 0.892938,1.2713943 Z M 0.8290691,1.044545 v 0 l -4.542e-4,-0.00605 1.549e-4,-0.00464 7.322e-4,-0.00297 0.001277,-0.00105 v 0 l 0.002468,6.867e-4 0.002464,0.00192 0.00236,0.00295 0.002156,0.00376 0.003297,0.00915 9.413e-4,0.00497 3.36e-4,0.00495 v 0 l 4.61e-5,0.00409 1.944e-4,0.00312 4.268e-4,0.00226 7.435e-4,0.00152 0.001144,8.931e-4 0.001629,3.841e-4 0.002198,-8.7e-6 0.002852,-2.852e-4 v 0 l 0.002963,-4.055e-4 0.002269,-5.297e-4 0.001652,-7.783e-4 0.001111,-0.00115 6.46e-4,-0.00165 2.572e-4,-0.00227 -5.55e-5,-0.00301 -2.919e-4,-0.00388 v 0 l -1.804e-4,-0.0046 4.048e-4,-0.00373 8.698e-4,-0.00276 0.001214,-0.00169 0.001439,-5.204e-4 0.001543,7.502e-4 0.001527,0.00212 0.001391,0.00359 v 0 l 0.00124,0.0034 0.002009,0.0051 0.005301,0.012356 v 0 l 0.003511,0.00925 0.001172,0.00497 8.317e-4,0.00566 5.27e-4,0.0067 2.586e-4,0.00809 2.6e-5,0.00983 -1.703e-4,0.011922 v 0 l -4.97e-4,0.016845 -4.109e-4,0.00785 -5.03e-4,0.0072 -5.832e-4,0.00633 -6.513e-4,0.00526 -7.074e-4,0.00397 -7.515e-4,0.00248 -0.003078,0.00855 -0.004104,-0.00889 v 0 l -0.001082,-0.00251 -9.7e-4,-0.00189 -0.001796,-0.00206 -0.001924,5.88e-5 -0.002437,0.00195 v 0 l -0.002544,0.0019 -0.003698,0.00152 -0.004339,0.001 -0.004468,3.634e-4 H 0.840698 l 0.002052,0.015391 v 0 l 6.4e-4,0.00429 3.754e-4,0.00345 1.029e-4,0.00269 -1.777e-4,0.00201 -0.001229,0.00232 -0.002448,6.252e-4 v 0 l -0.003612,-6.466e-4 -0.002903,-0.00203 -0.002221,-0.00353 -0.001568,-0.00517 -9.426e-4,-0.00693 -3.453e-4,-0.00882 2.238e-4,-0.010843 7.648e-4,-0.012992 v 0 l 0.001009,-0.014949 7.168e-4,-0.015566 5.398e-4,-0.03122 -1.851e-4,-0.014773 -4.936e-4,-0.013626 -8.063e-4,-0.012039 z"
           fill="#7a7a7a"
           fill-rule="nonzero"
           shaper:cutDepth="0.0005"
           shaper:pathType="hogging"
           transform="matrix(1,0,0,-1,1.3503857,1.7927182)"
           vector-effect="non-scaling-stroke"
           id="path30-4"
           style="fill:#ffffff;fill-opacity:1;stroke:none;stroke-opacity:1" />
        <path
           d="m 0.8403643,1.3327231 a 1.225,1.225 42.494097 0 1 -0.0899921,0.088594 v 0 l -0.001568,-0.00388 -0.002783,-0.00418 -0.003592,-0.00405 -0.003997,-0.00348 v 0 l -0.003858,-0.00319 -0.003153,-0.00361 -0.002127,-0.00354 -7.802e-4,-0.003 v 0 l -8.337e-4,-0.00355 -0.002244,-0.00461 -0.003271,-0.00506 -0.003912,-0.0049 v 0 l -0.004056,-0.00498 -0.003255,-0.00482 -0.002164,-0.00411 -7.856e-4,-0.00286 v 0 l 7.856e-4,-0.00268 0.002164,-0.00364 0.003255,-0.00416 0.004056,-0.00422 v 0 l 0.003912,-0.00434 0.003271,-0.00447 0.002244,-0.00408 8.337e-4,-0.00319 v 0 l 2.458e-4,-0.00302 9.513e-4,-0.00142 0.001977,1.175e-4 0.003324,0.00159 v 0 l 0.005611,0.00158 0.005676,-2.138e-4 0.002441,-7.001e-4 0.001952,-0.00105 0.001295,-0.00137 4.69e-4,-0.00166 v 0 l -5.986e-4,-0.00137 -0.001625,-0.00188 -0.005301,-0.00428 v 0 l -0.002476,-0.00177 -0.001815,-0.00165 -0.001198,-0.00177 -6.246e-4,-0.00216 -9.55e-5,-0.0028 3.894e-4,-0.0037 8.304e-4,-0.00485 0.001227,-0.00626 v 0 l 0.001748,-0.00898 6.894e-4,-0.00696 -2.726e-4,-0.00498 -0.001138,-0.00302 v 0 l -0.001341,-0.00207 1.016e-4,-0.00165 0.001576,-0.00133 0.003084,-0.00111 v 0 l 0.002738,-0.00107 0.002045,-0.00156 0.001331,-0.0019 5.979e-4,-0.0021 -1.556e-4,-0.00215 -9.293e-4,-0.00205 -0.001723,-0.0018 -0.002536,-0.0014 v 0 l -0.00266,-5.291e-4 -0.002973,1.443e-4 -0.006082,0.00192 -0.004927,0.00346 -0.00153,0.00207 -6.399e-4,0.00216 v 0 l -1.122e-4,0.00128 -8.02e-5,0.00199 -6.41e-5,0.00571 6.41e-5,0.00738 1.924e-4,0.00827 v 0 l -4.81e-5,0.00839 -5.932e-4,0.00765 -0.001042,0.00604 -6.594e-4,0.00215 -7.354e-4,0.00142 v 0 l -0.001689,0.00222 -0.001047,4.275e-4 -5.345e-4,-0.0015 -1.496e-4,-0.00355 v 0 l -1.71e-4,-0.00213 -4.917e-4,-0.00297 -7.802e-4,-0.00368 -0.001037,-0.00427 -0.002715,-0.00981 -0.003356,-0.010672 v 0 l -0.002117,-0.00657 -0.001736,-0.00592 -0.001359,-0.00535 -9.866e-4,-0.00486 -8.711e-4,-0.00861 5.718e-4,-0.00768 v 0 l 7.642e-4,-0.00658 -2.939e-4,-0.00556 -0.001384,-0.00479 -0.002506,-0.00428 v 0 l -0.002529,-0.0039 -0.001671,-0.00302 -7.896e-4,-0.00218 1.163e-4,-0.00138 0.001046,-6.246e-4 0.002,8.48e-5 0.002978,7.502e-4 0.00398,0.00137 v 0 l 0.002563,0.00124 0.003,0.00185 0.006878,0.00521 0.007327,0.00662 0.00691,0.00732 v 0 l 0.00727,0.00794 0.007475,0.00717 0.007723,0.00642 0.008016,0.0057 0.008352,0.00501 0.008733,0.00435 0.009158,0.00372 0.009627,0.00311 v 0 l 0.006027,0.00183 0.004933,0.0018 0.004124,0.00198 0.003599,0.00239 0.003358,0.00301 0.003402,0.00386 0.003731,0.00492 0.004344,0.00621 v 0 l 0.004407,0.00651 0.003273,0.00507 0.002223,0.00391 0.001256,0.00302 3.748e-4,0.00239 -4.229e-4,0.00204 -0.001136,0.00195 -0.001766,0.00213 v 0 l -0.002453,0.00335 -0.001267,0.00345 -1.763e-4,0.00364 8.176e-4,0.00393 v 0 z"
           fill="#7a7a7a"
           fill-rule="nonzero"
           shaper:cutDepth="0.0005"
           shaper:pathType="hogging"
           transform="matrix(1,0,0,-1,1.3503857,1.7927182)"
           vector-effect="non-scaling-stroke"
           id="path32-8"
           style="fill:#ffffff;fill-opacity:1;stroke:none;stroke-opacity:1" />
        <path
           d="m 0.4052999,-0.0783238 v 0 l 0.003714,-0.0022178 0.002232,-4.335e-4 0.002733,4.34e-5 0.003422,5.404e-4 0.0043,0.0010575 0.005366,0.0015945 0.006621,0.0021517 v 0 l 0.0119341,0.0035632 0.0115213,0.0030101 0.0223332,0.004457 0.022269,0.0025332 0.0232631,8.016e-4 h 0.0280461 l -0.007867,0.0232577 v 0 l -0.003158,0.0096355 -0.002613,0.0092186 -0.00178,0.0077437 -4.87e-4,0.0029881 -1.703e-4,0.0022224 v 0 l -4.436e-4,0.0047937 -0.001822,0.0030302 -0.001659,0.0010641 -0.00228,8.758e-4 -0.002993,7.716e-4 -0.003799,7.515e-4 v 0 l -0.003558,4.81e-4 -0.00443,4.168e-4 -0.005174,3.527e-4 -0.005788,2.886e-4 -0.0129021,3.848e-4 -0.0138079,1.282e-4 -0.0136797,-1.282e-4 -0.0125173,-3.848e-4 -0.0055,-2.886e-4 -0.004821,-3.527e-4 -0.004014,-4.168e-4 -0.003077,-4.81e-4 v 0 L 0.4294661,0.0032172 0.4229997,-1.71e-4 0.4161485,-0.0045853 0.4097462,-0.0095767 v 0 L 0.4055083,-0.0135654 0.4022003,-0.016989 0.3996939,-0.020116 0.3978608,-0.023215 0.3965729,-0.0265544 0.3957018,-0.0304028 0.3951193,-0.0350289 0.3946971,-0.040701 v 0 l -3.16e-4,-0.0071017 9.69e-5,-0.0062319 5.377e-4,-0.0054544 0.001007,-0.004769 0.001504,-0.0041758 0.002029,-0.0036747 0.002582,-0.003266 z"
           fill="#7a7a7a"
           fill-rule="nonzero"
           shaper:cutDepth="0.0005"
           shaper:pathType="hogging"
           transform="matrix(1,0,0,-1,1.3503857,1.7927182)"
           vector-effect="non-scaling-stroke"
           id="path34-0"
           style="fill:#ffffff;fill-opacity:1;stroke:none;stroke-opacity:1" />
        <path
           d="m 0.7339861,1.4341117 v 0 l 6.441e-4,9.416e-4 A 1.225,1.225 49.380441 1 1 1.0013315,1.1119032 v 0 l -0.005075,0.00272 -0.005573,0.00309 -0.0118073,0.00687 v 0 l -0.009935,0.00589 -0.00438,0.00248 -0.003855,0.0021 -0.00323,0.00167 -0.002504,0.00118 -0.001679,6.446e-4 -7.529e-4,5.54e-5 v 0 l -3.214e-4,-6.788e-4 -3.221e-4,-0.00137 -6.411e-4,-0.00461 -6.28e-4,-0.00681 -6.045e-4,-0.00865 -5.704e-4,-0.01013 -5.258e-4,-0.011248 -8.758e-4,-0.0244 -5.711e-4,-0.024528 -1.451e-4,-0.011408 -3.73e-5,-0.010355 8.09e-5,-0.00894 2.097e-4,-0.00716 3.49e-4,-0.00503 2.3e-4,-0.0016 2.687e-4,-9.273e-4 v 0 L 0.949855,0.9987631 0.952476,0.9956981 0.956155,0.9917111 0.960748,0.9869501 0.966111,0.9815641 0.972099,0.9757011 0.9853738,0.963137 v 0 l 0.005727,-0.005313 0.005027,-0.004695 0.004373,-0.00414 0.00376,-0.003648 0.0032,-0.003219 0.00268,-0.002853 0.004,-0.004862 0.00247,-0.004156 0.00132,-0.003956 5.217e-4,-0.004261 9.29e-5,-0.00507 v 0 L 1.0184225,0.91131 1.0180751,0.907387 l -5.398e-4,-0.00187 -3.32e-4,-6.54e-5 -3.68e-4,5.678e-4 v 0 l -7.963e-4,0.001379 -0.00121,9.299e-4 -0.00141,2.885e-4 -0.00137,-5.451e-4 v 0 l -8.337e-4,-0.001299 6.41e-5,-0.002164 9.62e-4,-0.002741 0.00186,-0.00303 v 0 l 0.0014,-0.002862 0.00113,-0.004321 8.938e-4,-0.006309 3.642e-4,-0.004065 3.132e-4,-0.004761 2.65e-4,-0.005522 2.199e-4,-0.00635 1.779e-4,-0.007244 1.388e-4,-0.008204 1.027e-4,-0.00923 6.96e-5,-0.0103219 3.96e-5,-0.0114802 1.25e-5,-0.0127047 V 0.719279 L 0.9255137,0.714491 0.9176467,0.723384 v 0 l -0.002993,0.004387 -0.002292,0.005056 -0.001563,0.005497 -8.05e-4,0.00571 -1.93e-5,0.005694 7.942e-4,0.005449 0.001636,0.004976 0.002506,0.004275 v 0 l 0.001643,0.001464 0.002777,0.001785 0.003763,0.002042 0.004601,0.002234 0.0111212,0.004788 0.0126923,0.004788 v 0 l 0.009225,0.003067 0.007305,0.002614 0.005613,0.002285 0.00415,0.002081 0.002916,0.002001 0.00191,0.002045 0.001132,0.002213 5.832e-4,0.002506 v 0 l 9.37e-5,0.001877 -2.093e-4,0.002607 -0.001194,0.006957 -0.002003,0.008537 -0.002544,0.009222 -0.002817,0.009014 -0.002821,0.007911 -0.001328,0.003263 -0.001228,0.002652 -0.001095,0.00193 -9.283e-4,0.001096 v 0 L 0.9669594,0.856946 0.9652334,0.859768 0.9614284,0.86772 v 0 L 0.9591834,0.872626 0.9562974,0.877724 0.9531554,0.882438 0.9501414,0.88619 v 0 l -0.002186,0.002248 -0.001769,0.001627 -0.00148,0.001025 -0.00132,4.443e-4 -0.002672,-7.749e-4 -0.001609,-0.001179 -0.001961,-0.00168 v 0 l -0.002886,-0.00349 -0.001988,-0.00442 -0.00109,-0.00551 -1.924e-4,-0.00676 v 0 l -2.458e-4,-0.006568 -6.947e-4,-0.007754 -0.00108,-0.007947 -0.0014,-0.007145 v 0 L 0.9261936,0.8310892 0.9247507,0.8229127 0.923436,0.8147361 0.922442,0.8075215 v 0 L 0.9204907,0.7956981 0.9177659,0.7847595 0.9143436,0.7747567 0.9103001,0.765741 0.9057111,0.757763 0.9006531,0.750875 0.8952031,0.745127 0.8894361,0.74057 0.8834281,0.737256 0.8772561,0.735235 l -0.00626,-6.759e-4 -0.006272,7.2e-4 -0.006208,0.002167 -0.006068,0.003665 -0.005851,0.005214 -0.005559,0.006814 v 0 l -0.00637,0.008893 -0.00272,0.003132 -0.001854,0.001657 v 0 l -0.001026,0.001251 -5.13e-4,0.001571 5.13e-4,0.003335 v 0 l 6.52e-4,0.001454 -5.34e-5,0.001197 -6.948e-4,8.123e-4 -0.001272,2.993e-4 v 0 l -0.001277,2.939e-4 -7.322e-4,7.749e-4 -1.55e-4,0.001096 4.543e-4,0.001256 v 0 l 6.573e-4,0.001758 -1.6e-5,0.002047 -0.001667,0.004062 v 0 l -7.615e-4,0.001392 -9.7e-4,0.002306 -0.00113,0.003108 -0.001243,0.003797 -0.002629,0.009213 -0.002501,0.0106241 v 0 l -0.00179,0.00709 -0.001566,0.005699 -0.001406,0.004424 -0.001309,0.003266 -0.001277,0.002224 -0.001309,0.001298 -0.001406,4.883e-4 -0.001566,-2.051e-4 v 0 L 0.8011627,0.841593 0.7968499,0.83973 0.7913758,0.8372648 0.7849532,0.834301 0.7701145,0.8272929 0.7540373,0.8195352 0.7384251,0.8118576 0.7313256,0.8083082 0.7249812,0.8050899 0.7196048,0.8023066 0.7154092,0.8000618 0.7126074,0.7984593 0.7114124,0.7976028 v 0 l -0.001657,-0.001544 -0.003132,-0.002346 -0.008893,-0.005686 v 0 L 0.6925209,0.7844615 0.6870859,0.7802878 0.6820998,0.7760499 0.678236,0.7722929 v 0 L 0.671909,0.7657949 0.668906,0.7635399 0.666608,0.7623749 v 0 L 0.664497,0.7613539 0.663829,0.7601089 0.664636,0.7582869 0.66695,0.7555349 v 0 l 0.002741,-0.002977 0.0038,-0.00442 0.00885,-0.010731 v 0 L 0.691747,0.7256925 0.696386,0.7204765 0.700127,0.7165435 v 0 l 0.003105,-0.003153 0.002496,-0.003089 0.001662,-0.002704 6.039e-4,-0.001999 v 0 l 3.58e-4,-0.001689 9.673e-4,-0.001817 0.003121,-0.002993 v 0 l 0.002282,-0.00202 0.003404,-0.003623 0.007995,-0.009748 v 0 l 0.004612,-0.006076 0.005606,-0.006878 0.005798,-0.006814 0.005189,-0.005884 v 0 l 0.004612,-0.005243 0.00381,-0.004633 0.002592,-0.003543 7.087e-4,-0.001213 2.479e-4,-7.595e-4 v 0 l 2.946e-4,-9.032e-4 8.437e-4,-0.001384 0.003094,-0.003955 0.004569,-0.005109 0.005563,-0.00575 v 0 l 0.004447,-0.004551 0.003425,-0.003834 0.002535,-0.003393 0.001778,-0.003228 0.001152,-0.003341 6.593e-4,-0.00373 2.986e-4,-0.004395 7.02e-5,-0.005337 v 0 l -8.08e-5,-0.005348 -3.093e-4,-0.00441 -6.38e-4,-0.003721 -0.001067,-0.00328 -0.001596,-0.003088 -0.002225,-0.003144 -0.002955,-0.003448 -0.003784,-0.004001 v 0 l -0.004549,-0.004506 -0.00343,-0.00358 -0.00238,-0.002754 -0.001398,-0.002029 -4.843e-4,-0.001404 3.614e-4,-8.784e-4 0.001139,-4.536e-4 0.001848,-1.289e-4 v 0 l 0.001956,-4.757e-4 0.002148,-0.001277 0.004104,-0.004062 v 0 l 0.002052,-0.003089 5.13e-4,-0.002383 -0.001026,-0.002127 -0.002565,-0.002319 v 0 l -0.003257,-0.001734 -0.003241,-6.6e-4 -0.003049,3.02e-4 -0.00268,0.001152 -0.002135,0.001889 -0.001414,0.002514 -5.157e-4,0.003027 5.585e-4,0.003428 v 0 l 6.353e-4,0.002129 3.427e-4,0.0015 1.4e-5,8.504e-4 -3.507e-4,1.81e-4 -7.515e-4,-5.083e-4 -0.001189,-0.001218 -0.001661,-0.001947 -0.00217,-0.002697 v 0 l -0.002743,-0.003466 -0.002078,-0.002973 -0.00142,-0.0025 -7.709e-4,-0.002047 -1.296e-4,-0.001615 5.037e-4,-0.001202 0.001129,-8.09e-4 0.001746,-4.362e-4 v 0 l 0.00101,-6.41e-5 0.002343,-6.42e-5 0.003606,-6.41e-5 0.004798,-6.41e-5 0.00592,-6.41e-5 0.006973,-6.42e-5 0.007954,-6.41e-5 0.008866,-6.41e-5 0.009708,-6.42e-5 0.0104796,-6.41e-5 0.0111809,-6.41e-5 0.0118123,-6.42e-5 L 0.8589225,0.5241103 0.8858436,0.523982 1.0192334,0.52364 V 0.4654963 H 0.8779787 v 0 l -0.0125612,-3.12e-5 -0.0117905,-3.05e-5 -0.0110428,-3.08e-5 -0.0103179,-3.24e-5 -0.009616,-3.51e-5 -0.008937,-3.91e-5 -0.008281,-4.43e-5 -0.007648,-5.05e-5 -0.0134878,-1.248e-4 -0.0112302,-1.645e-4 -0.009156,-2.135e-4 -0.007265,-2.721e-4 -0.005558,-3.403e-4 -0.004034,-4.179e-4 -0.002693,-5.051e-4 -0.001536,-6.018e-4 -5.616e-4,-7.08e-4 2.289e-4,-8.238e-4 0.002096,-0.002033 v 0 l 0.003105,-0.00272 0.002496,-0.002368 0.001662,-0.00179 6.039e-4,-9.886e-4 v 0 l 3.874e-4,-6.587e-4 0.001109,-0.001404 0.00175,-0.002061 0.002311,-0.002631 0.005985,-0.006616 0.007268,-0.007834 v 0 l 0.005424,-0.00576 0.004297,-0.004854 0.003295,-0.004164 0.002418,-0.003692 0.001664,-0.003435 0.001035,-0.003395 6.787e-4,-0.007535 v 0 L 0.7898939,0.3924192 0.7891163,0.3880597 0.7874088,0.3834918 0.7844348,0.3781944 0.7798576,0.3716465 0.7768625,0.3677407 0.7733404,0.363327 0.7692491,0.35834 0.7645466,0.3527148 0.7591908,0.3463862 0.7531395,0.339289 v 0 L 0.743349,0.3271044 0.7396242,0.3221183 0.7382928,0.3201964 0.7374064,0.3187675 v 0 L 0.7365045,0.3173693 0.7351298,0.3155343 0.7312499,0.3108582 0.7209891,0.2996141 v 0 l -0.005061,-0.005488 -0.004131,-0.004815 -0.002784,-0.003597 -7.568e-4,-0.001171 -2.639e-4,-6.62e-4 v 0 l -4.81e-4,-0.001299 -0.001315,-0.002164 -0.004361,-0.005772 v 0 l -0.00287,-0.003495 -0.003671,-0.004457 -0.007824,-0.009491 v 0 L 0.6796041,0.247498 0.6758311,0.2428219 0.6727636,0.2390756 v 0 l -0.002311,-0.003345 -0.001558,-0.003281 -8.203e-4,-0.003089 -9.89e-5,-0.002768 6.066e-4,-0.002319 0.001296,-0.001742 0.001969,-0.001037 0.002627,-2.031e-4 v 0 L 0.67651,0.22119 l 0.001427,-7.108e-4 7.215e-4,-0.00116 -8.02e-5,-0.001448 v 0 l 4.25e-5,-9.683e-4 7.144e-4,-0.001327 0.003118,-0.003498 0.004825,-0.004235 0.005879,-0.004508 0.00628,-0.004315 0.006027,-0.003658 0.005122,-0.002536 0.002017,-7.017e-4 0.001545,-2.469e-4 v 0 l 0.003506,-0.001282 0.002993,-0.002822 v 0 l 0.002084,-0.002191 0.003816,-0.002768 0.0105172,-0.005985 v 0 l 0.0114579,-0.005259 0.004895,-0.002293 0.003484,-0.001683 v 0 l 0.00287,-0.001074 0.003671,-5.932e-4 0.003992,-1.61e-5 0.003832,6.574e-4 v 0 l 0.004735,4.008e-4 0.006466,-2.726e-4 0.0147926,-0.00218 v 0 l 0.00573,-0.001559 0.005097,-0.001744 0.004792,-0.002144 0.004816,-0.002762 0.005169,-0.003595 0.00585,-0.004645 0.00686,-0.005912 0.008199,-0.007395 v 0 l 0.003757,-0.003105 0.004238,-0.002496 0.004174,-0.001662 0.003565,-6.038e-4 v 0 l 0.002184,3.045e-4 0.003118,8.652e-4 0.003903,0.001353 0.004541,0.001769 0.0103997,0.004492 0.0111693,0.005282 0.0107524,0.005491 0.009149,0.005118 0.003603,0.002237 0.002757,0.001926 0.001763,0.001543 6.206e-4,0.001086 v 0 l 2.458e-4,0.001026 6.947e-4,5.131e-4 h 0.00108 l 0.0014,-5.131e-4 v 0 l 0.001256,-4.542e-4 0.001096,1.55e-4 7.749e-4,7.321e-4 2.939e-4,0.001277 v 0 l 4.168e-4,0.001582 0.001122,0.001582 0.003591,0.002651 v 0 l 0.001568,6.633e-4 0.002322,0.00118 0.002963,0.001637 0.003492,0.002034 0.008123,0.005018 0.008893,0.005884 0.0218896,0.0143651 -0.0314663,0.009577 v 0 l -0.00629,0.002008 -0.005677,0.001937 -0.009634,0.003756 -0.007534,0.003764 -0.005666,0.003969 -0.004031,0.004369 -0.002628,0.004967 -0.001458,0.00576 -5.197e-4,0.00675 v 0 l 4.275e-4,0.00668 0.001454,0.005462 0.002736,0.004692 0.004275,0.004371 v 0 l 0.003442,0.003267 0.003057,0.002414 0.003313,0.001636 0.004211,9.345e-4 0.00575,3.093e-4 0.003653,-5.6e-5 0.004278,-1.838e-4 0.004983,-3.02e-4 0.005769,-4.108e-4 0.006635,-5.099e-4 0.007581,-5.996e-4 v 0 l 0.002145,-1.423e-4 0.002766,-1.623e-4 0.006931,-3.367e-4 0.0162035,-3.848e-4 0.0198374,-6.841e-4 v -0.0434372 0 l -6.58e-5,-0.007317 -7.58e-5,-0.006471 -9.58e-5,-0.005686 -1.26e-4,-0.00496 -1.66e-4,-0.004295 -2.161e-4,-0.003689 -6.226e-4,-0.005804 -9.432e-4,-0.004104 -0.00134,-0.002886 -0.00182,-0.002148 -0.00239,-0.001892 v 0 L 0.9949393,0.1664013 0.9800412,0.1562681 0.9663134,0.1472332 0.9533953,0.139076 0.928545,0.1245132 0.9158914,0.1176667 0.9026045,0.1108162 0.8591673,0.0889266 0.8608775,0.067721 v 0 L 0.8611039,0.0567154 0.8605728,0.0448962 0.8593925,0.0328925 0.857671,0.0213338 0.8555166,0.0108493 0.8530376,0.0020682 0.8517102,-0.0014869 0.8503422,-0.0043802 0.8489471,-0.006533 0.8475385,-0.0078666 v 0 l -0.004532,-0.0018811 -0.001817,-2.352e-4 -0.001176,4.062e-4 v 0 l -3.988e-4,0.0012686 -4.188e-4,0.0029159 -4.269e-4,0.0043828 -4.228e-4,0.0056695 -4.069e-4,0.0067757 -3.787e-4,0.0077016 -6.253e-4,0.0174593 v 0 L 0.8367379,0.0434359 0.8365235,0.0496257 0.8360112,0.0602819 0.8353305,0.0690143 0.8344133,0.0762716 0.8331915,0.0825029 0.8315969,0.088157 0.8295614,0.0936828 0.827017,0.0995293 v 0 L 0.8223328,0.1091 0.8174408,0.117096 0.8122278,0.123608 0.8065818,0.12873 0.8003908,0.132553 0.7935418,0.13517 l -0.007618,0.001502 -0.0085,4.803e-4 v 0 l -0.004996,-5.08e-5 -0.003998,-1.63e-4 -0.00306,-2.912e-4 -0.002182,-4.356e-4 -0.001365,-5.958e-4 -6.072e-4,-7.723e-4 9.02e-5,-9.646e-4 7.275e-4,-0.001173 v 0 l 0.001432,-0.002106 0.00156,-0.002939 0.00248,-0.006584 v 0 L 0.7681406,0.117777 0.767842,0.115327 0.766766,0.113742 0.765068,0.1130392 0.762906,0.1132343 0.760435,0.1143433 0.757812,0.1163823 0.755193,0.1193673 v 0 L 0.749642,0.1258133 0.743233,0.1307883 0.735942,0.1342963 0.727745,0.1363413 0.718619,0.1369272 0.7085386,0.1360581 0.6974802,0.1337381 0.6854198,0.1299711 v 0 l -0.005808,-0.001847 -0.005255,-0.00145 -0.009716,-0.00179 -0.0101004,-4.436e-4 -0.005736,2.331e-4 -0.006481,5.097e-4 v 0 L 0.6324554,0.1257617 0.622892,0.1254645 0.6136814,0.1243095 0.6048716,0.1223168 0.5965107,0.1195064 0.5886468,0.1158985 0.581328,0.1115129 0.5746024,0.1063698 0.5643416,0.0978192 0.5639996,0.0328344 v 0 l -5.13e-5,-0.0098343 -2.22e-5,-0.0088949 1.19e-5,-0.0080181 5.09e-5,-0.007204 9.5e-5,-0.0064525 1.441e-4,-0.0057636 4.556e-4,-0.0097109 7.121e-4,-0.007707 0.001009,-0.0062039 0.001345,-0.0052018 0.001722,-0.0047009 v 0 l 0.005241,-0.0101886 0.006928,-0.0089861 0.008507,-0.0077357 0.009978,-0.006437 0.0113409,-0.0050903 0.0125955,-0.0036955 0.0137418,-0.0022525 0.0147799,-7.616e-4 v 0 l 0.001746,8.12e-5 0.002649,2.394e-4 0.003515,3.916e-4 0.004343,5.377e-4 0.005134,6.777e-4 0.005889,8.117e-4 0.006606,9.396e-4 0.007286,0.0010614 0.007929,0.0011771 0.008534,0.0012868 0.018737,0.0028782 0.020714,0.003244 0.0223939,0.0035611 0.0237767,0.0038297 0.0248623,0.0040496 0.0517935,0.0085646 0.052571,0.0088613 0.0258343,0.0044204 0.0251375,0.0043487 v 0 l 0.0157331,0.0028537 0.007089,0.0012225 0.006335,0.0010542 0.00541,8.617e-4 0.0043,6.453e-4 0.00302,4.048e-4 0.00156,1.403e-4 v 0 l 0.00145,-0.0011436 0.0012,-0.0031317 8.123e-4,-0.0046708 2.992e-4,-0.005761 V -0.0636167 L 0.9740878,-0.0707992 v 0 L 0.9640956,-0.0724399 0.9530853,-0.0742408 0.9294535,-0.0780673 0.9060782,-0.0817654 0.8953886,-0.0834061 0.8858453,-0.0848223 v 0 l -0.00476,-7.599e-4 -0.00539,-8.627e-4 L 0.8632663,-0.0884402 0.8490328,-0.0907322 0.8334727,-0.0932446 0.8002802,-0.0986262 0.7675046,-0.1039757 v 0 l -0.0309586,-0.004612 -0.014824,-0.002031 -0.0138581,-0.001779 -0.0124952,-0.001474 -0.0107358,-0.001118 -0.008579,-7.088e-4 -0.003357,-1.848e-4 -0.002669,-6.3e-5 v 0 l -0.0125768,4.355e-4 -0.0123643,0.001317 -0.012196,0.002215 -0.0120718,0.003129 -0.0119916,0.004059 -0.0119555,0.0050047 -0.0119635,0.0059668 -0.0120157,0.0069447 v 0 l -0.008559,0.0042893 -0.009761,0.0028344 -0.005567,8.579e-4 -0.00615,4.775e-4 -0.006828,9.18e-5 L 0.528429,-0.078623 0.5199642,-0.0793194 0.5105394,-0.080418 0.5000606,-0.0819245 0.4884334,-0.0838443 0.4755637,-0.0861829 0.4613573,-0.0889459 0.44572,-0.0921388 0.4285576,-0.0957671 v 0 l -0.00782,-0.0013587 -0.00709,-4.69e-4 -0.006433,4.449e-4 -0.005848,0.0013828 -0.005335,0.0023448 -0.004894,0.0033307 -0.004525,0.0043408 -0.004228,0.0053749 v 0 l -0.002966,0.0041738 -0.002549,0.0035645 -0.001844,0.0026026 -8.497e-4,0.0012879 v 0 l -0.001454,2.726e-4 -0.003506,-1.443e-4 -0.005045,-4.649e-4 -0.006071,-6.894e-4 -0.0153911,-0.0023942 -0.002052,-0.0177853 v 0 L 0.3396043,-0.0969935 0.3384553,-0.1028 0.3371463,-0.107484 0.3356123,-0.111158 0.3337903,-0.113934 0.3316153,-0.115925 0.3290233,-0.117242 0.3259503,-0.1179982 v 0 l -0.003367,9.09e-5 -0.003046,0.001918 -0.002918,0.003907 -0.002982,0.006055 v 0 l -0.003169,0.006087 -0.004484,0.0069527 -0.005189,0.0070169 -0.005285,0.0062793 v 0 l -0.003653,0.0039654 -0.002808,0.0029393 -0.002046,0.0019452 -0.001369,9.834e-4 -7.756e-4,5.34e-5 -2.665e-4,-8.444e-4 1.583e-4,-0.0017101 4.99e-4,-0.0025438 v 0 l 0.001797,-0.0098353 0.001292,-0.0089494 0.001101,-0.0165722 -1.75e-4,-0.008288 -6.48e-4,-0.008733 -0.001113,-0.009511 -0.00157,-0.0106209 v 0 l -0.002154,-0.0131519 -9.306e-4,-0.00584 -8.063e-4,-0.005163 -6.62e-4,-0.004346 -4.976e-4,-0.003387 -3.133e-4,-0.002289 -1.089e-4,-0.001051 v 0 l 4.502e-4,-3.68e-4 0.001292,-3.32e-4 0.002045,-2.92e-4 0.002711,-2.478e-4 0.007065,-3.474e-4 0.008668,-1.229e-4 v 0 l 0.0177753,-7.108e-4 0.0166891,-0.002154 0.015671,-0.003629 0.0147211,-0.005136 0.0138394,-0.006675 0.0130257,-0.008246 0.0122801,-0.009849 0.0116028,-0.0114845 v 0 l 0.00808,-0.009 0.007311,-0.008871 0.003126,-0.004067 0.002645,-0.00365 0.002068,-0.003105 0.001395,-0.002432 v 0 l 0.002086,-0.003601 0.002094,-0.002828 0.002013,-0.002018 0.001845,-0.001172 0.001589,-2.906e-4 0.001244,6.273e-4 8.11e-4,0.001581 2.899e-4,0.002571 v 0 l 3.735e-4,0.001876 0.001075,0.002377 0.001708,0.002809 0.002273,0.003172 0.005969,0.007159 0.007412,0.007788 0.016973,0.0152682 0.00847,0.006382 0.007733,0.004814 v 0 l 0.005576,0.003092 0.004915,0.002402 0.009304,0.003057 0.005119,8.15e-4 0.005917,4.463e-4 0.007079,1.576e-4 0.008606,-5.08e-5 0.0280461,-6.84e-4 v 0.009919 0 l 8.831e-4,0.00517 0.002398,0.005732 0.003536,0.00586 0.004298,0.005555 0.004683,0.004818 0.004691,0.003647 0.004322,0.002044 0.001905,2.856e-4 0.001672,-2.776e-4 v 0 l 0.002646,-0.001407 0.001784,-0.001896 9.265e-4,-0.002361 7.28e-5,-0.002802 -7.769e-4,-0.003218 -0.001623,-0.003611 -0.002464,-0.00398 -0.003302,-0.004325 v 0 l -0.003205,-0.004215 -0.002428,-0.004175 -0.001642,-0.004127 -8.483e-4,-0.004071 -4.68e-5,-0.004007 7.629e-4,-0.003935 0.00158,-0.003855 0.002406,-0.003766 v 0 l 0.002249,-0.00328 0.001635,-0.003031 0.001048,-0.002765 4.875e-4,-0.002483 -5.972e-4,-0.004054 -0.002513,-0.002728 -0.004213,-0.001269 -0.005696,3.226e-4 -0.006962,0.002046 -0.008012,0.003902 v 0 l -0.007362,0.003606 -0.007474,0.002604 -0.007602,0.001594 -0.007746,5.759e-4 -0.007907,-4.503e-4 -0.008083,-0.001484 -0.008275,-0.002526 -0.008484,-0.003577 v 0 l -0.0105113,-0.0054 -0.009064,-0.005801 -0.007774,-0.006378 -0.00664,-0.007132 -0.005661,-0.008062 -0.00484,-0.009168 -0.004174,-0.0104504 -0.003666,-0.0119095 v 0 l -0.001781,-0.006327 -0.001565,-0.004976 -0.001452,-0.003782 -0.001444,-0.002744 -0.001541,-0.001862 -0.001741,-0.001136 -0.0045,-7.214e-4 v 0 l -0.004516,9.459e-4 -0.001971,0.001453 -0.001935,0.002347 -0.002015,0.003421 -0.002212,0.004675 -0.002524,0.00611 -0.002953,0.007726 v 0 l -0.004049,0.009577 -0.004567,0.009098 -0.005066,0.008603 -0.005546,0.008095 -0.006007,0.007572 -0.006449,0.007034 -0.006872,0.006482 -0.007275,0.005916 -0.00766,0.005334 -0.008026,0.004739 -0.008373,0.004128 -0.0087,0.003504 -0.009009,0.002864 -0.009299,0.002211 -0.009569,0.001542 -0.009821,8.593e-4 v 0 l -0.008627,3.179e-4 -0.006647,1.096e-4 -0.005059,-2.111e-4 -0.003865,-6.44e-4 -0.003063,-0.001189 -0.002655,-0.001846 -0.002639,-0.002616 -0.003015,-0.003498 v 0 l -0.003191,-0.003501 -0.003994,-0.003797 -0.004704,-0.004034 -0.005319,-0.004214 -0.0121071,-0.008737 -0.0134379,-0.008765 -0.014015,-0.008332 -0.0138387,-0.007438 -0.0129087,-0.006084 -0.00587,-0.00239 -0.005355,-0.001878 v 0 l -0.014333,-0.003971 -0.0143971,-0.002399 -0.008245,-7.208e-4 -0.009487,-4.603e-4 -0.0111385,-2.438e-4 -0.0131987,-7.15e-5 v 0 l -0.007864,6.6e-6 -0.006984,3.02e-5 -0.0062029,6.92e-5 -0.0055195,1.238e-4 -0.0093817,4.736e-4 -0.0078265,8.785e-4 -0.0070569,0.001408 -0.007073,0.002061 -0.0078746,0.002838 -0.0094618,0.00374 v 0 l -0.0203511,0.008999 -0.018752,0.010085 -0.0171887,0.0111993 -0.0156617,0.0123417 -0.0141707,0.013512 -0.0127157,0.0147104 -0.0112969,0.0159369 -0.009914,0.0171914 v 0 l -0.0056221,0.0109395 -0.0025064,0.004842 -0.0022178,0.004269 -0.0018651,0.00358 -0.0014483,0.002774 -9.672e-4,0.001852 -4.222e-4,8.143e-4 v 0 l -0.00134,1.032e-4 -0.0033515,-3.036e-4 -0.0051302,-6.684e-4 -0.006676,-9.91e-4 -0.007988,-0.001272 -0.009068,-0.00151 -0.009915,-0.001706 -0.0105286,-0.001861 -0.0435921,-0.008144 -0.0101027,-0.002001 -0.009319,-0.001903 -0.008302,-0.001763 -0.007052,-0.00158 v 0 l -0.0137572,-0.003329 -0.0124184,-0.003361 -0.0112802,-0.003458 -0.0103422,-0.003618 -0.009605,-0.003842 -0.009068,-0.004131 -0.0173257,-0.009384 v 0 l -0.00776,-0.004859 -0.006738,-0.004702 -0.005913,-0.004742 -0.005283,-0.004979 -0.004851,-0.005412 -0.004614,-0.006041 -0.004574,-0.006867 -0.00473,-0.007889 v 0 l -0.004865,-0.007572 -0.005134,-0.006317 -0.005446,-0.005091 -0.005803,-0.003892 -0.006204,-0.002722 -0.006649,-0.00158 -0.007138,-4.656e-4 -0.007671,6.206e-4 v 0 l -0.0159843,0.003223 -0.0162088,0.005371 -0.0157599,0.007231 -0.0146376,0.008802 -0.0153911,0.0102608 -0.005814,-0.0259939 v 0 l -0.003613,-0.0130544 -0.004451,-0.0109622 -0.005325,-0.008894 -0.006235,-0.00685 -0.007181,-0.00483 -0.008162,-0.002834 -0.009181,-8.617e-4 -0.0102347,0.001086 v 0 l -0.004858,0.001476 -0.004954,0.00251 -0.004858,0.00336 -0.004569,0.004025 -0.004088,0.004507 -0.003415,0.004803 -0.002549,0.004915 -0.001491,0.004843 v 0 l -3.995e-4,0.001997 -4.235e-4,0.002823 -8.871e-4,0.007578 -8.872e-4,0.009245 -8.23e-4,0.009823 v 0 l -0.001114,0.0110163 -0.001836,0.0102909 -0.002605,0.009674 -0.003423,0.009165 -0.004289,0.008764 -0.005202,0.008471 -0.006165,0.008287 -0.007174,0.008211 -0.0164172,0.0177853 -0.00171,-0.0365967 -0.00171,-0.0369387 -0.013339,-0.0119709 v 0 l -0.004184,-0.003752 -0.003506,-0.002854 -0.003114,-0.002052 -0.003005,-0.001347 -0.003182,-7.375e-4 -0.003643,-2.245e-4 -0.004388,1.924e-4 -0.005418,5.13e-4 v 0 l -0.005569,5.739e-4 -0.004735,9.385e-4 -0.004414,0.001668 -0.004607,0.002762 -0.005312,0.004221 -0.003081,0.002772 -0.00345,0.003273 -0.003883,0.00382 -0.004379,0.004413 -0.004941,0.005051 -0.005566,0.005735 v 0 l -0.0145147,0.01514 -0.015156,0.0159416 -0.007257,0.00768 -0.006744,0.007171 -0.006007,0.006426 -0.005045,0.005444 v 0 l -0.004703,0.004976 -0.004318,0.004371 -0.003869,0.003706 -0.003356,0.00298 -0.002779,0.002194 -0.002138,0.001349 -0.001432,4.429e-4 -6.627e-4,-5.231e-4 v 0 l -0.001563,-0.002483 -0.002734,-0.002503 -0.003663,-0.002415 -0.004353,-0.002219 -0.009812,-0.003415 -0.004978,-9.8e-4 -0.004706,-3.507e-4 v 0 l -0.005756,3.774e-4 -0.005792,0.001167 -0.005929,0.002009 -0.006165,0.002902 -0.006502,0.003849 -0.006939,0.004846 -0.007476,0.005897 -0.008113,0.006999 v 0 l -0.009254,0.008717 -0.008908,0.009347 -0.008561,0.0099747 -0.008211,0.0105989 -0.007861,0.0112202 -0.007508,0.0118385 -0.007155,0.0124536 -0.0068,0.013066 -0.006443,0.0136751 -0.006085,0.0142814 -0.005725,0.0148846 -0.005364,0.0154849 -0.005001,0.016082 -0.004637,0.0166762 -0.004271,0.0172675 -0.003904,0.0178556 -0.007525,0.0372807 -0.0157332,0.00171 v 0 l -0.00669,0.001117 -0.00631,0.001662 -0.00528,0.001983 -0.00361,0.002079 v 0 l -0.00167,0.001734 -0.00204,0.002698 -0.00236,0.003559 -0.00262,0.004317 -0.00584,0.0104966 -0.00629,0.0122962 -0.012318,0.0267047 -0.00522,0.0127651 -0.00405,0.0112782 v 0 l -0.00332,0.010701 -0.00346,0.0127651 -0.00349,0.0142963 -0.00341,0.0152943 -0.00614,0.0314502 -0.0025,0.0150899 -0.00197,0.0139556 v 0 l -8.626e-4,0.008525 -6.671e-4,0.009811 -4.768e-4,0.0109238 -2.915e-4,0.0118642 -1.11e-4,0.0126319 6.43e-5,0.0132265 6.346e-4,0.0275457 0.00128,0.0278503 0.00188,0.0267722 0.00115,0.0125496 0.00129,0.0117616 0.00142,0.0108006 0.00154,0.009667 v 0 l 0.0056,0.0289839 0.00653,0.0281343 0.00741,0.0271723 0.00825,0.0260981 0.00905,0.0249117 0.00981,0.0236131 0.010535,0.0222023 0.011216,0.0206791 v 0 l 0.00702,0.0115781 0.0078,0.0119148 0.0167752,0.0233646 0.00841,0.0107123 0.008045,0.009574 0.007396,0.008067 0.006462,0.006191 v 0 l 0.004167,0.003648 0.003069,0.002898 0.002059,0.002394 0.001137,0.002133 3.033e-4,0.002117 -4.423e-4,0.002345 -0.0011,0.002818 -0.001669,0.003536 v 0 l -0.002696,0.007008 -0.001463,0.007853 -2.944e-4,0.008566 8.088e-4,0.009145 0.001847,0.009592 0.00282,0.009907 0.003728,0.0100878 0.00457,0.0101364 0.005348,0.0100523 0.00606,0.009835 0.006708,0.009486 0.00729,0.009003 0.007807,0.008388 0.008259,0.00764 0.008646,0.006759 0.008967,0.005745 v 0 l 0.008011,0.004137 0.008941,0.003885 0.0193886,0.006643 0.009807,0.002574 0.009454,0.001953 0.00878,0.001239 0.007786,4.335e-4 v 0 l 0.003641,9.09e-5 0.003044,3.153e-4 0.004729,0.001561 0.003639,0.00323 0.001681,0.0024 0.001734,0.00301 v 0 l 0.003105,0.00531 0.004291,0.00662 0.009705,0.013724 0.0112868,0.015049 -0.0116289,0.00479 v 0 l -0.005691,0.00278 -0.005012,0.0033 -0.004329,0.00378 -0.003641,0.00419 -0.002947,0.00456 -0.002249,0.00487 -0.001545,0.00513 -8.369e-4,0.00533 -1.234e-4,0.00549 5.95e-4,0.00559 0.001319,0.00563 0.002047,0.00562 0.002781,0.00556 0.003519,0.00545 0.004262,0.00528 0.005011,0.00507 v 0 l 0.006254,0.00527 0.006937,0.00479 0.00758,0.0043 0.008184,0.0038 0.008749,0.0033 0.009275,0.00279 0.009762,0.00228 0.0102102,0.00177 0.010619,0.00125 0.0109887,7.196e-4 0.0113194,1.886e-4 0.011611,-3.476e-4 0.0239404,-0.00232 0.0246378,-0.00453 v 0 l 0.0124786,-0.00298 0.0114204,-0.00262 0.004903,-0.00111 0.004145,-9.372e-4 0.003223,-7.369e-4 0.002137,-5.083e-4 v 0 l 0.004126,-1.07e-5 0.001862,9.606e-4 0.001878,0.00179 0.002007,0.00275 0.002247,0.00385 0.0026,0.00508 0.003065,0.00645 v 0 l 0.005335,0.0098 0.006369,0.00997 0.007187,0.00988 0.007788,0.00951 0.008173,0.00887 0.008341,0.00795 0.008293,0.00677 0.008028,0.00531 v 0 l 0.008209,0.00446 0.00842,0.00388 0.0171941,0.00601 0.0172022,0.00368 0.00843,9.622e-4 0.008223,3.745e-4 0.007946,-2.147e-4 0.0076,-8.054e-4 0.007184,-0.0014 0.006699,-0.00199 0.006144,-0.00259 0.005519,-0.00318 0.004825,-0.00378 0.004061,-0.00438 v 0 l 0.003329,-0.00341 0.003554,-0.00283 0.003361,-0.00193 0.002752,-7.162e-4 v 0 l 0.009094,-9.338e-4 0.009343,-0.00282 0.009615,-0.00473 0.009912,-0.00666 0.0102327,-0.00861 0.0105774,-0.010593 0.0109461,-0.012598 0.011339,-0.014626 0.0116288,-0.015391 0.040701,-0.00239 v 0 l 0.0499197,-0.00312 0.0238075,-0.00168 0.0219116,-0.00166 0.009981,-8.062e-4 0.009189,-7.777e-4 0.008293,-7.406e-4 0.00729,-6.95e-4 0.006182,-6.409e-4 0.004968,-5.782e-4 0.003648,-5.071e-4 0.002223,-4.275e-4 v 0 l 0.0022031,-3.58e-4 0.0020829,3.153e-4 0.0020989,0.00115 0.0022512,0.00214 0.0025398,0.0033 0.0029647,0.00461 0.0035258,0.00609 0.0042232,0.00772 v 0 l 0.0108306,0.017851 0.0120049,0.016384 0.0132315,0.014957 0.01451,0.01357 0.0158407,0.012223 0.0172235,0.010917 0.0186584,0.00965 0.0201454,0.00842 v 0 l 0.0094284,0.00353 0.0079615,0.00271 0.0071758,0.00199 0.0070717,0.00139 0.0076488,8.918e-4 0.0089073,5.03e-4 0.0108473,2.225e-4 0.006364,3.98e-5 0.007105,1.03e-5 v 0 l 0.0180004,-2.272e-4 0.0160845,-0.00101 0.0146256,-0.00191 0.0136236,-0.00292 0.0130784,-0.00404 0.0129903,-0.00528 0.013359,-0.00662 0.0141847,-0.00808 v 0 l 0.0106227,-0.00675 0.0101807,-0.00727 0.009722,-0.00776 0.009246,-0.00823 0.008753,-0.00868 0.008243,-0.0091 0.007716,-0.0095 0.007172,-0.00987 0.006611,-0.010223 0.006032,-0.010547 0.005437,-0.010846 0.004825,-0.011121 0.004196,-0.011372 0.003549,-0.011598 0.002886,-0.011799 0.002206,-0.011976 0.00342,-0.022916 0.0174433,-0.0041 v 0 l 0.0116267,-0.003 0.0117586,-0.00371 0.0118377,-0.00438 0.0118642,-0.00502 0.0235978,-0.011813 0.0230726,-0.013941 0.0221268,-0.015785 0.02076,-0.0173438 0.0189724,-0.0186183 0.008684,-0.009698 0.00808,-0.00991 v 0 L 0.5429009,0.9366568 0.5524776,0.9220519 0.5616375,0.9066053 0.5704125,0.8902489 0.5788349,0.8729145 0.5869366,0.854534 0.5947498,0.8350392 0.6023064,0.814362 v 0 l 0.002966,-0.008727 0.002549,-0.00722 0.001028,-0.002814 8.157e-4,-0.002161 5.671e-4,-0.001416 2.826e-4,-5.779e-4 v 0 l 5.418e-4,3.695e-4 0.001548,0.001303 0.002438,0.002145 0.003211,0.002895 0.003868,0.003552 0.00441,0.004117 0.009978,0.009561 v 0 l 0.008833,0.008012 0.008408,0.00709 0.008552,0.006529 0.009265,0.006329 0.010548,0.006489 0.0123998,0.00701 0.007072,0.003813 0.007748,0.004079 0.008496,0.004389 0.009315,0.004745 0.0212056,0.0106028 -0.012655,0.0143651 v 0 l -0.006258,0.00785 -0.005072,0.008524 -0.00411,0.009742 -0.003372,0.0115059 v 0 L 0.710034,0.961474 0.706628,0.9729933 0.703375,0.9834064 l -0.002997,0.00897 -0.002636,0.007191 -0.002171,0.005074 -8.786e-4,0.00164 -7.233e-4,9.83e-4 v 0 l -0.00218,0.00402 -8.978e-4,0.00453 v 0 l -3.099e-4,0.00152 -8.872e-4,0.00242 -0.0014,0.00321 -0.001849,0.00388 -0.004788,0.00927 -0.005814,0.010485 v 0 l -0.00642,0.011583 -0.005438,0.010729 -0.004501,0.010015 -0.003607,0.00944 -0.002757,0.00901 -0.001951,0.00872 -0.00119,0.00856 -4.723e-4,0.00855 v 0 l 2.291e-4,0.00796 0.001155,0.00789 0.002013,0.00768 0.002802,0.00734 0.003524,0.00686 0.004177,0.00624 0.004762,0.00548 0.005279,0.00459 v 0 l 0.004724,0.00404 0.003057,0.00417 0.001646,0.00468 4.917e-4,0.00558 v 0 l 0.001112,0.010004 0.001197,0.00471 0.001454,0.00375 v 0 l 0.001325,0.00332 8.123e-4,0.00399 1.71e-4,0.00418 -5.985e-4,0.0039 v 0 l -2.779e-4,0.00447 6.199e-4,0.00617 0.001389,0.00701 0.002031,0.00697 v 0 l 0.001181,0.00393 0.001213,0.00474 0.002394,0.011207 0.002138,0.012297 0.001625,0.011944 v 0 l 8.617e-4,0.00839 5.171e-4,0.00664 1.483e-4,0.00518 -2.445e-4,0.00403 -6.614e-4,0.00318 -0.001102,0.00264 -0.003623,0.00483 v 0 l -0.00324,0.00461 -0.002286,0.00567 -0.00134,0.00639 -4.022e-4,0.0068 5.278e-4,0.00688 0.00145,0.00664 0.002363,0.00607 0.003269,0.00517 v 0 l 0.003271,0.00445 0.003399,0.00522 0.003142,0.00534 0.002501,0.00483 v 0 l 0.004917,0.00885 0.002923,0.0038 0.002763,0.00274 v 0 l 0.002811,0.00277 0.003516,0.00428 z M 0.8177823,0.6700274 v 0 l -0.001005,-0.004414 1.496e-4,-0.004735 0.001432,-0.005376 0.002843,-0.006338 v 0 l 0.002045,-0.003784 0.001872,-0.002955 0.001848,-0.002225 0.001973,-0.001596 0.002245,-0.001067 0.002666,-6.38e-4 0.003235,-3.092e-4 0.003953,-8.09e-5 v 0 l 0.006763,4.309e-4 0.005913,0.001285 0.005048,0.002126 0.004166,0.002956 0.003268,0.003774 0.002354,0.004579 0.001424,0.005373 4.783e-4,0.006155 v 0 l -4.189e-4,0.006704 -0.001265,0.005758 -0.002122,0.004829 -0.002992,0.003915 -0.003874,0.003017 -0.004768,0.002135 -0.005673,0.001269 -0.006591,4.196e-4 v 0 L 0.8375529,0.6911074 0.8333658,0.690613 0.8299803,0.6895736 0.827188,0.6878127 0.8247804,0.685154 0.8225493,0.6814211 0.820286,0.6764377 Z M 0.6488218,-0.054382 v 0 l -0.00181,-3.293e-4 -8.724e-4,-8.945e-4 -2.27e-5,-0.0013194 7.388e-4,-0.0016039 0.00341,-0.0035004 0.005398,-0.0029553 v 0 l 0.005831,-0.0015465 0.007406,-8.209e-4 0.008472,-1.397e-4 0.00903,4.977e-4 0.009078,0.0010909 0.008617,0.00164 0.007647,0.002145 0.006168,0.0026059 v 0 l 0.002858,0.0011951 0.003844,0.0012472 0.004661,0.0012552 0.005311,0.0012191 0.011896,0.0021537 0.0124732,0.0014803 v 0 l 0.0115153,0.0013421 0.0103851,0.0016988 0.009182,0.0020274 0.007908,0.002328 0.006561,0.0026006 0.005142,0.0028451 0.003651,0.0030615 0.002088,0.00325 v 0 l 0.001084,0.0038016 -1.062e-4,0.002948 -0.001333,0.0021063 -0.002595,0.0012766 -0.003894,4.589e-4 -0.005229,-3.467e-4 -0.006599,-0.0011403 -0.008006,-0.0019219 v 0 l -0.009855,-0.0022071 -0.0107524,-0.0018545 -0.0103676,-0.0012772 -0.004639,-3.521e-4 -0.004062,-1.235e-4 v 0 l -0.00869,-5.665e-4 -0.00901,-0.0016567 -0.009138,-0.0026828 -0.009074,-0.0036447 v 0 l -0.006509,-0.0026253 -0.007915,-0.0026654 -0.0181113,-0.00497 -0.009226,-0.0020642 -0.008693,-0.0016233 -0.007675,-0.0010621 z"
           fill="#7a7a7a"
           fill-rule="nonzero"
           shaper:cutDepth="0.0005"
           shaper:pathType="hogging"
           transform="matrix(1,0,0,-1,1.3503857,1.7927182)"
           vector-effect="non-scaling-stroke"
           id="path36-7"
           style="fill:#ffffff;fill-opacity:1;stroke:none;stroke-opacity:1" />
      </g>
    </g>
  </g>
</svg>
